<svg width="284" height="237" viewBox="0 0 284 237" fill="none" xmlns="http://www.w3.org/2000/svg">
<g clip-path="url(#clip0_621:122)">
<path d="M259.865 169.808L268.728 168.713C270.648 164.056 271.497 158.958 271.199 153.862C266.382 161.266 256.19 161.147 249.417 166.429C247.316 168.094 245.586 170.253 244.355 172.746C243.124 175.239 242.423 178.002 242.304 180.83L239.378 186.943C243.546 187.44 247.763 186.947 251.74 185.497C255.716 184.046 259.357 181.673 262.411 178.542C264.108 176.766 265.593 174.765 266.832 172.585C263.344 171.434 259.865 169.808 259.865 169.808Z" fill="#F2F2F2"/>
<path d="M253.117 155.896L260.601 150.607C260.415 145.505 259.088 140.53 256.737 136.114C255.455 145.082 246.284 149.931 242.383 157.95C241.184 160.462 240.519 163.235 240.437 166.065C240.355 168.895 240.858 171.708 241.909 174.297L241.791 181.192C245.725 179.61 249.298 177.119 252.263 173.888C255.229 170.656 257.517 166.763 258.969 162.476C259.762 160.061 260.272 157.548 260.489 154.995C256.896 155.66 253.117 155.896 253.117 155.896Z" fill="#F2F2F2"/>
<path d="M220.625 220.621C235.458 220.621 247.482 207.515 247.482 191.347C247.482 175.179 235.458 162.072 220.625 162.072C205.792 162.072 193.767 175.179 193.767 191.347C193.767 207.515 205.792 220.621 220.625 220.621Z" fill="white"/>
<path d="M220.625 220.979C215.248 220.979 209.992 219.241 205.521 215.985C201.051 212.729 197.566 208.101 195.509 202.687C193.451 197.272 192.913 191.314 193.962 185.566C195.011 179.818 197.6 174.538 201.402 170.394C205.204 166.25 210.048 163.428 215.321 162.284C220.594 161.141 226.061 161.728 231.028 163.97C235.995 166.213 240.241 170.011 243.228 174.884C246.216 179.757 247.81 185.486 247.81 191.347C247.802 199.203 244.935 206.735 239.839 212.29C234.742 217.845 227.832 220.97 220.625 220.979ZM220.625 162.43C215.378 162.43 210.248 164.126 205.886 167.303C201.523 170.481 198.123 174.997 196.115 180.281C194.107 185.565 193.581 191.379 194.605 196.988C195.629 202.598 198.155 207.75 201.866 211.794C205.576 215.838 210.303 218.593 215.449 219.708C220.595 220.824 225.93 220.251 230.777 218.063C235.625 215.874 239.768 212.168 242.683 207.412C245.598 202.657 247.154 197.066 247.154 191.347C247.146 183.68 244.349 176.33 239.375 170.909C234.402 165.488 227.658 162.438 220.625 162.43V162.43Z" fill="#3F3D56"/>
<path d="M218.614 203.046C218.557 203.046 218.499 203.044 218.442 203.041C217.936 203.015 217.442 202.869 216.992 202.615C216.543 202.36 216.149 202.003 215.839 201.567L211.35 195.277C211.067 194.88 210.858 194.426 210.735 193.941C210.613 193.456 210.579 192.95 210.637 192.45C210.694 191.951 210.841 191.469 211.069 191.032C211.297 190.595 211.602 190.211 211.966 189.902L212.128 189.765C212.492 189.456 212.908 189.228 213.354 189.094C213.799 188.961 214.263 188.924 214.722 188.987C215.18 189.049 215.622 189.209 216.023 189.458C216.424 189.707 216.777 190.039 217.06 190.437C217.287 190.754 217.574 191.014 217.901 191.199C218.229 191.385 218.589 191.491 218.957 191.51C219.326 191.53 219.694 191.462 220.036 191.313C220.379 191.163 220.687 190.934 220.941 190.643L230.054 180.156C230.696 179.419 231.579 178.99 232.511 178.963C233.442 178.935 234.345 179.311 235.023 180.009L235.172 180.164C235.507 180.51 235.777 180.924 235.965 181.384C236.153 181.843 236.256 182.338 236.268 182.841C236.281 183.344 236.202 183.845 236.037 184.314C235.872 184.784 235.624 185.214 235.306 185.579L221.164 201.85C220.836 202.228 220.44 202.529 220.002 202.735C219.564 202.94 219.091 203.046 218.614 203.046V203.046Z" fill="#6C63FF"/>
<path d="M206.575 228.758L202.85 229.21L199.321 213.458L204.818 212.791L206.575 228.758Z" fill="#A0616A"/>
<path d="M231.115 157.942C230.999 157.817 230.873 157.694 230.749 157.578C229.787 156.709 228.783 155.898 227.74 155.15C226.56 154.293 225.232 153.418 223.73 152.515C223.003 152.077 222.234 151.63 221.425 151.174C221.019 150.946 220.602 150.715 220.173 150.484C220.155 150.472 220.136 150.461 220.117 150.452L219.992 150.383L210.953 158.516L210.311 159.066L211.976 161.304C211.976 161.304 211.831 163.084 211.835 163.085L210.182 167.581L210.163 167.59L204.274 170.519L198.206 173.539L194.946 175.162C194.19 175.538 193.511 176.073 192.946 176.737C192.382 177.402 191.945 178.182 191.66 179.032C191.36 179.916 191.225 180.855 191.262 181.796C191.299 182.737 191.507 183.66 191.875 184.512C191.948 184.686 192.029 184.86 192.116 185.028L193.471 194.31C194.28 199.862 195.853 205.249 198.137 210.29L200.206 218.979L200.52 218.807L205.199 216.252L206.435 215.579L206.668 209.741C206.695 209.075 206.698 208.406 206.677 207.739C206.645 206.646 206.549 205.556 206.39 204.476L203.707 186.27C204.183 186.058 204.653 185.846 205.116 185.632C207.263 184.653 209.295 183.663 211.214 182.663C217.452 179.413 222.534 176.039 226.687 172.384C227.854 171.359 228.948 170.31 229.97 169.237C230.346 168.845 230.712 168.449 231.067 168.049C231.152 167.956 231.234 167.865 231.316 167.772C232.047 166.935 232.574 165.912 232.849 164.797C233.124 163.681 233.137 162.508 232.888 161.384C232.61 160.076 231.995 158.882 231.115 157.942V157.942Z" fill="#2F2E41"/>
<path d="M206.272 226L202.24 226.486L201.607 226.561L202.019 229.171L197.333 234.161C197.101 234.407 196.948 234.728 196.895 235.076C196.842 235.425 196.893 235.782 197.04 236.097C197.187 236.411 197.423 236.666 197.712 236.824C198.002 236.983 198.33 237.036 198.649 236.976L205.303 235.734L206.044 232.938L206.898 235.436L209.404 234.968L207.252 225.883L206.272 226Z" fill="#2F2E41"/>
<path d="M210.109 135.625L213.561 131.634L208.691 120.019L207.967 115.94C207.873 115.41 207.653 114.916 207.329 114.508C207.005 114.099 206.588 113.791 206.12 113.613C205.653 113.436 205.15 113.395 204.664 113.495C204.177 113.595 203.723 113.833 203.347 114.184V114.184C202.79 114.705 202.44 115.441 202.371 116.237C202.302 117.034 202.52 117.828 202.979 118.453L205.668 122.117L210.109 135.625Z" fill="#A0616A"/>
<path d="M213.561 129.847L209.627 134.136L210.38 140.407C210.619 141.225 211.049 141.963 211.627 142.547C212.205 143.131 212.912 143.543 213.678 143.742V143.742C214.624 143.987 215.617 143.898 216.513 143.487C217.408 143.076 218.161 142.365 218.661 141.456L227.511 124.921C228.139 123.782 228.332 122.42 228.051 121.127C227.77 119.834 227.036 118.713 226.006 118.002V118.002C225.452 117.619 224.83 117.368 224.182 117.265C223.533 117.162 222.871 117.209 222.24 117.403C221.609 117.596 221.023 117.933 220.519 118.39C220.015 118.848 219.605 119.415 219.316 120.057L213.914 132.603L213.561 129.847Z" fill="#E6E6E6"/>
<path d="M209.598 193.135C209.394 193.361 209.19 193.584 208.984 193.807C208.574 194.254 208.158 194.696 207.74 195.133C207.531 195.352 207.318 195.572 207.108 195.788L207.11 195.796L207.096 195.802L207.091 195.806L206.741 196.003L205.87 194.605L205.469 193.961L204.901 193.048L203.86 191.38L198.384 182.592L203.295 179.829L203.682 180.649L203.685 180.649L203.876 181.055L207.468 188.641L208.201 190.193L208.224 190.239L208.665 191.166L209.045 191.968L209.47 192.865L209.598 193.135Z" fill="#A0616A"/>
<path d="M208.583 190.287L205.164 192.667L204.627 193.039L206.055 195.182L203.877 201.915C203.769 202.248 203.761 202.61 203.856 202.948C203.95 203.285 204.14 203.582 204.4 203.793C204.659 204.004 204.974 204.119 205.298 204.121C205.622 204.124 205.938 204.013 206.2 203.806L211.664 199.484L211.193 196.62L212.973 198.448L215.031 196.821L209.415 189.709L208.583 190.287Z" fill="#2F2E41"/>
<path d="M89.8661 58.5197L92.4843 49.2256C89.3341 45.4465 85.3852 42.5627 80.9805 40.8246C85.2839 48.5957 81.1139 58.7333 82.8516 67.6106C83.413 70.3748 84.5379 72.9659 86.143 75.1918C87.748 77.4177 89.792 79.2214 92.1235 80.4692L96.0966 85.8351C98.1795 81.8686 99.4487 77.4569 99.8167 72.9042C100.185 68.3515 99.643 63.7659 98.2286 59.4634C97.4132 57.0583 96.3232 54.7747 94.9843 52.6665C92.6233 55.6919 89.8661 58.5197 89.8661 58.5197Z" fill="#F2F2F2"/>
<path d="M75.4697 59.7072L74.0103 50.1158C69.6445 48.2647 64.9302 47.6032 60.2766 48.1888C67.308 53.0523 67.7235 64.153 72.911 71.2538C74.5445 73.455 76.6115 75.2273 78.9588 76.4393C81.3062 77.6514 83.8736 78.2721 86.471 78.2556L92.2226 81.1269C92.4639 76.5641 91.7948 71.9985 90.2615 67.7448C88.7281 63.491 86.367 59.6501 83.3407 56.4867C81.6268 54.7304 79.7168 53.2163 77.6558 51.9802C76.7805 55.8358 75.4697 59.7072 75.4697 59.7072Z" fill="#F2F2F2"/>
<path d="M125.579 31.5386L128.268 27.8748C128.727 27.2501 128.945 26.4556 128.876 25.6591C128.807 24.8626 128.457 24.1264 127.9 23.6058C127.524 23.2544 127.07 23.0168 126.583 22.9167C126.097 22.8166 125.594 22.8574 125.127 23.0351C124.659 23.2129 124.242 23.5213 123.918 23.9295C123.594 24.3378 123.374 24.8316 123.28 25.3616L122.556 29.4413L119.807 37.5308L123.105 39.3285L125.579 31.5386Z" fill="#FFB8B8"/>
<path d="M117.333 42.025L111.931 29.4785C111.642 28.8372 111.232 28.2694 110.728 27.8121C110.224 27.3549 109.638 27.0184 109.007 26.8245C108.376 26.6307 107.714 26.5838 107.065 26.687C106.417 26.7903 105.795 27.0412 105.241 27.4236V27.4236C104.211 28.1345 103.477 29.2562 103.196 30.5491C102.915 31.842 103.108 33.2036 103.735 34.343L112.586 50.8782C113.086 51.7867 113.838 52.4979 114.734 52.9089C115.63 53.3198 116.623 53.4091 117.568 53.1637V53.1637C118.335 52.9646 119.042 52.553 119.62 51.9687C120.198 51.3844 120.628 50.6472 120.867 49.8287L124.205 38.4296L119.807 36.0327L117.333 42.025Z" fill="#2F2E41"/>
<path d="M127.526 37.987L123.987 37.6636C123.432 37.6121 122.917 37.3226 122.558 36.8585C122.198 36.3944 122.021 35.7936 122.067 35.188L123.429 17.4887C123.476 16.8832 123.742 16.3229 124.168 15.9306C124.593 15.5383 125.144 15.3461 125.7 15.3962L129.239 15.7197C129.795 15.7711 130.309 16.0607 130.669 16.5248C131.028 16.9889 131.205 17.5896 131.159 18.1952L129.797 35.8945C129.75 36.5 129.484 37.0604 129.059 37.4527C128.633 37.845 128.082 38.0371 127.526 37.987Z" fill="#3F3D56"/>
<path d="M125.217 16.2612C124.917 16.2342 124.62 16.3377 124.391 16.5491C124.161 16.7605 124.018 17.0625 123.993 17.3888L122.631 35.0881C122.606 35.4144 122.701 35.7382 122.895 35.9883C123.089 36.2383 123.366 36.3944 123.666 36.4221L127.205 36.7456C127.504 36.7725 127.801 36.669 128.03 36.4576C128.26 36.2462 128.403 35.9442 128.428 35.6179L129.79 17.9186C129.815 17.5923 129.72 17.2686 129.526 17.0185C129.332 16.7684 129.055 16.6124 128.755 16.5846L125.217 16.2612Z" fill="#6C63FF"/>
<path d="M117.976 53.9177H103.253V69.9664H117.976V53.9177Z" fill="#FFB8B8"/>
<path d="M120.84 52.5452C121.275 52.5452 121.629 52.1603 121.629 51.6854C121.629 51.2106 121.275 50.8257 120.84 50.8257C120.404 50.8257 120.051 51.2106 120.051 51.6854C120.051 52.1603 120.404 52.5452 120.84 52.5452Z" fill="#2F2E41"/>
<path d="M133.982 121.707L137.909 121.707L139.777 105.197L133.981 105.197L133.982 121.707Z" fill="#FFB6B6"/>
<path d="M133.008 119.596L139.216 119.192V122.091L145.118 126.534C145.409 126.753 145.629 127.068 145.744 127.433C145.86 127.798 145.865 128.194 145.76 128.563C145.654 128.931 145.443 129.253 145.158 129.482C144.873 129.711 144.528 129.835 144.174 129.835H136.783L135.509 126.967L135.012 129.835H132.225L133.008 119.596Z" fill="#2F2E41"/>
<path d="M104.838 133.493L108.205 135.695L117.602 122.588L112.633 119.337L104.838 133.493Z" fill="#FFB6B6"/>
<path d="M105 131.136L110.513 134.272L109.145 136.758L112.107 143.878C112.254 144.229 112.293 144.623 112.22 145.001C112.146 145.378 111.964 145.721 111.7 145.978C111.435 146.235 111.102 146.393 110.75 146.429C110.397 146.465 110.043 146.377 109.739 146.178L103.403 142.033L103.664 138.859L101.884 141.039L99.4948 139.476L105 131.136Z" fill="#2F2E41"/>
<path d="M25.8771 132.056C25.8384 132.056 25.7996 132.055 25.7605 132.053C25.304 132.035 24.8583 131.897 24.4613 131.651C24.0642 131.405 23.7276 131.058 23.4801 130.64C21.6259 127.619 19.3504 124.932 16.7358 122.677C15.153 121.298 13.4991 120.015 11.8997 118.775C7.7734 115.577 3.8875 112.565 1.73043 108.404C-2.97264 99.3287 2.56591 86.6886 10.4782 81.0199C19.353 74.6622 31.0264 73.6649 42.3191 73.5342C43.4927 73.5207 44.667 73.514 45.842 73.514C66.189 73.5225 86.4932 75.5462 106.504 79.56C113.158 80.8981 120.123 82.5374 125.721 86.5156C131.285 90.4703 134.666 96.6979 134.336 102.382C133.855 110.679 125.785 116.879 118.437 118.5C111.433 120.044 104.157 119.001 96.4542 117.896C94.7536 117.652 92.9954 117.4 91.2567 117.181C72.36 114.8 36.8615 122.138 35.3596 122.452L33.8696 122.763L28.0884 130.872C27.8284 131.242 27.4935 131.541 27.11 131.746C26.7264 131.951 26.3045 132.057 25.8771 132.056V132.056Z" fill="#6C63FF"/>
<path d="M110.026 91.5778H30.1564C29.6955 91.5778 29.2535 91.3782 28.9276 91.023C28.6017 90.6678 28.4186 90.186 28.4186 89.6836C28.4186 89.1812 28.6017 88.6994 28.9276 88.3442C29.2535 87.989 29.6955 87.7894 30.1564 87.7894H110.026C110.487 87.7894 110.929 87.989 111.255 88.3442C111.581 88.6994 111.764 89.1812 111.764 89.6836C111.764 90.186 111.581 90.6678 111.255 91.023C110.929 91.3782 110.487 91.5778 110.026 91.5778V91.5778Z" fill="white"/>
<path d="M110.026 103.205H30.1563C29.928 103.205 29.7018 103.156 29.4907 103.062C29.2796 102.967 29.0877 102.827 28.926 102.652C28.7643 102.476 28.6359 102.267 28.5483 102.037C28.4606 101.808 28.4154 101.561 28.4152 101.312C28.4149 101.063 28.4597 100.817 28.5469 100.587C28.6341 100.357 28.762 100.148 28.9234 99.9717C29.0848 99.7956 29.2764 99.6559 29.4873 99.5606C29.6983 99.4653 29.9243 99.4162 30.1527 99.4161H110.026C110.486 99.4168 110.928 99.6167 111.253 99.9719C111.579 100.327 111.761 100.808 111.761 101.31C111.761 101.812 111.579 102.294 111.253 102.649C110.928 103.004 110.486 103.204 110.026 103.205Z" fill="white"/>
<path d="M39.4639 114.831H30.1563C29.6958 114.83 29.2544 114.63 28.929 114.275C28.6037 113.92 28.4209 113.439 28.4209 112.937C28.4209 112.435 28.6037 111.953 28.929 111.598C29.2544 111.243 29.6958 111.043 30.1563 111.043H39.4639C39.9244 111.043 40.3658 111.243 40.6912 111.598C41.0166 111.953 41.1993 112.435 41.1993 112.937C41.1993 113.439 41.0166 113.92 40.6912 114.275C40.3658 114.63 39.9244 114.83 39.4639 114.831V114.831Z" fill="white"/>
<path d="M118.497 65.372L102.756 63.3243L103.209 66.5775C103.209 66.5775 92.5491 75.9399 99.8463 86.2697L103.369 90.0146L103.045 91.7745H105.307L105.55 93.8978L115.282 102.679L115.841 104.475H117.443L116.66 106.518L109.435 124.834L115.421 127.877L126.446 104.84L123.622 97.8963L113.463 83.8815L129.197 90.6559L129.465 92.1429L130.912 91.8443L130.633 94.0329L133.703 111.253L140.207 110.312L139.538 88.8855C139.488 87.7142 139.154 86.5784 138.571 85.5932C137.987 84.608 137.175 83.8087 136.217 83.2762C132.883 81.4098 120.568 76.2237 120.568 76.2237L118.497 65.372Z" fill="#2F2E41"/>
<path d="M112.192 27.8387L109.229 23.6865L105.001 23.4867L104.579 27.3919L102.484 28.4448C100.393 37.1059 100.07 46.1617 101.538 54.9737V54.9737C101.819 55.2618 102.024 55.6263 102.132 56.0297C102.241 56.433 102.248 56.8606 102.155 57.2682L102.019 57.8584L102.031 57.88C102.477 58.6466 102.628 59.5735 102.452 60.4606V60.4606L98.623 67.8774C106.755 71.4901 112.716 64.753 118.239 55.9238L121.657 43.0276L112.192 27.8387Z" fill="#3F3D56"/>
<path d="M121.101 51.714L121.9 43.0133L111.304 25.9165L110.868 26.2371L121.357 43.1627L120.578 51.6568L121.101 51.714Z" fill="#2F2E41"/>
<path d="M109.435 23.3456C113.752 23.3456 117.252 19.5312 117.252 14.8259C117.252 10.1206 113.752 6.30615 109.435 6.30615C105.118 6.30615 101.619 10.1206 101.619 14.8259C101.619 19.5312 105.118 23.3456 109.435 23.3456Z" fill="#FFB8B8"/>
<path d="M110.441 4.43526L109.46 4.46918L109.127 4.4807L105.394 4.60979C102.086 4.72422 99.4992 8.10585 99.6173 12.1629C97.2004 14.9815 98.0492 18.3786 100.137 21.9952C103.726 22.3563 107.252 23.2548 110.616 24.6652L111.024 22.4563L112.037 25.3117C112.876 25.7196 113.709 26.1684 114.536 26.6583C113.447 21.8357 112.916 17.005 113.457 13.2195L115.166 13.1604L115.107 11.1215L115.747 13.1403L118.845 13.0331C118.812 11.867 118.567 10.7196 118.126 9.65647C117.686 8.5933 117.057 7.63517 116.277 6.83678C115.496 6.0384 114.579 5.41539 113.578 5.00333C112.576 4.59128 111.51 4.39825 110.441 4.43526V4.43526Z" fill="#2F2E41"/>
<path d="M103.692 8.02432C105.725 8.02432 107.373 6.22802 107.373 4.01216C107.373 1.79631 105.725 0 103.692 0C101.659 0 100.011 1.79631 100.011 4.01216C100.011 6.22802 101.659 8.02432 103.692 8.02432Z" fill="#2F2E41"/>
<path d="M127.875 35.8274L130.564 32.1636C131.022 31.5389 131.24 30.7445 131.171 29.948C131.103 29.1515 130.753 28.4152 130.195 27.8946V27.8946C129.819 27.5432 129.365 27.3056 128.879 27.2055C128.392 27.1054 127.89 27.1462 127.422 27.324C126.954 27.5017 126.538 27.8101 126.214 28.2184C125.89 28.6266 125.669 29.1204 125.575 29.6505L124.851 33.7301L122.102 41.8196L125.401 43.6173L127.875 35.8274Z" fill="#FFB8B8"/>
<path d="M119.628 46.3138L114.226 33.7674C113.937 33.126 113.527 32.5582 113.023 32.101C112.519 31.6437 111.933 31.3072 111.302 31.1133C110.671 30.9195 110.009 30.8726 109.361 30.9759C108.712 31.0791 108.09 31.33 107.536 31.7124V31.7124C106.507 32.4233 105.773 33.5451 105.491 34.8379C105.21 36.1308 105.403 37.4924 106.031 38.6318L114.881 55.167C115.381 56.0755 116.134 56.7868 117.03 57.1977C117.925 57.6086 118.918 57.6979 119.864 57.4525V57.4525C120.631 57.2535 121.337 56.8418 121.915 56.2575C122.493 55.6732 122.923 54.9361 123.163 54.1175L126.5 42.7184L122.102 40.3215L119.628 46.3138Z" fill="#2F2E41"/>
<path d="M233.237 165.204C232.896 165.799 232.549 166.392 232.199 166.979C231.548 168.073 230.88 169.15 230.194 170.212C230.194 170.214 230.192 170.214 230.189 170.217C229.79 170.621 229.348 170.972 228.873 171.265C228.853 171.281 228.831 171.292 228.811 171.305C228.462 171.516 228.09 171.679 227.704 171.79C227.564 171.828 227.423 171.866 227.284 171.903C226.782 172.033 226.285 172.144 225.791 172.242C224.912 172.412 224.043 172.534 223.179 172.61C223.109 172.618 223.04 172.624 222.97 172.629C219.416 172.913 215.957 172.456 212.346 171.706C210.563 171.338 208.742 170.896 206.857 170.439C206.241 170.287 205.623 170.139 204.997 169.99C204.95 169.979 204.9 169.965 204.851 169.954C203.957 169.741 203.048 169.529 202.116 169.321C200.944 169.058 201.545 169.043 200.288 168.802C200.288 168.802 203.188 172.011 203.669 173.403C204.206 175.114 204.631 176.467 203.734 179.285L206.518 185.243L196.839 187.032C191.504 175.638 187.241 168.135 189.145 163.715C189.153 163.51 189.167 163.301 189.192 163.096C189.293 162.16 189.565 161.256 189.99 160.437C190.415 159.617 190.985 158.897 191.668 158.32C192.323 157.763 193.072 157.353 193.873 157.114C194.675 156.875 195.511 156.812 196.335 156.929L198.235 157.197L212.969 156.417L213.548 153.845L213.655 153.802L217.049 152.446L228.791 147.754L228.821 147.744L229.593 147.435L229.685 147.597C229.713 147.646 229.74 147.695 229.765 147.744C230.528 149.235 231.15 150.808 231.62 152.438C232.411 155.099 233.061 157.808 233.569 160.55C233.592 160.669 233.612 160.778 233.629 160.875L233.637 160.905C233.644 160.951 233.649 160.981 233.651 160.989C233.922 162.218 233.733 163.718 233.237 165.204Z" fill="#2F2E41"/>
<path d="M230.76 115.185L230.675 110.054L223.218 109.109L222.436 113.441L214.599 121.468C209.027 128.893 213.076 134.014 213.318 134.775L214.007 144.138L214.441 147.391L212.748 156.293L234.111 161.288C234.795 155.133 234.034 149.414 229.574 144.811L231.827 137.168C232.97 135.172 233.686 132.922 233.923 130.584L234.004 129.785C235.996 123.022 234.816 120.745 230.76 115.185Z" fill="#E6E6E6"/>
<path d="M241.221 99.1506C241.226 99.2832 241.229 99.4159 241.229 99.5458C241.226 100.98 240.913 102.392 240.314 103.669C239.715 104.945 238.848 106.049 237.783 106.89C236.717 107.731 235.485 108.286 234.185 108.508C232.886 108.731 231.557 108.615 230.306 108.17L228.774 107.626C228.762 107.621 228.747 107.618 228.734 107.613L226.209 106.714C226.2 106.598 226.202 106.481 226.214 106.365C222.446 104.611 227.654 98.8474 228.948 94.519C229.149 93.8449 222.233 94.3484 222.56 93.7718C222.488 93.7312 222.416 93.6906 222.349 93.65C223.518 91.6403 225.245 90.0903 227.278 89.2264C229.312 88.3624 231.546 88.2298 233.654 88.8478C233.709 88.8613 233.766 88.8803 233.82 88.8965C238.728 89.0292 241.306 92.7567 241.306 97.5968C241.305 98.1161 241.277 98.6349 241.221 99.1506V99.1506Z" fill="#2F2E41"/>
<path d="M236.969 101.056C236.311 103.254 234.879 105.077 232.987 106.124C231.096 107.172 228.901 107.357 226.884 106.641C226.656 106.56 226.432 106.468 226.213 106.365C224.378 105.507 222.903 103.932 222.079 101.95C221.255 99.9669 221.142 97.7199 221.761 95.6504C221.957 94.9915 222.226 94.3608 222.56 93.7718C223.589 91.9569 225.191 90.6158 227.066 90.0025C228.94 89.3891 230.956 89.546 232.731 90.4435C234.506 91.341 235.918 92.9168 236.699 94.8726C237.48 96.8284 237.576 99.0284 236.969 101.056V101.056Z" fill="#A0616A"/>
<path d="M228.773 107.625C228.759 107.622 228.746 107.617 228.733 107.611L226.208 106.714C226.202 106.596 221.565 109.941 221.579 109.823C221.651 108.919 226.874 104.509 227.654 103.483C228.159 102.828 228.51 102.049 228.677 101.213C228.844 100.377 228.822 99.5098 228.613 98.6854C228.404 97.8609 228.014 97.1042 227.477 96.4806C226.94 95.8569 226.271 95.385 225.53 95.1055C225.507 95.0993 225.485 95.0909 225.464 95.0805C224.976 94.8946 224.507 94.7052 224.067 94.5158C223.851 93.5329 223.739 93.8582 223.218 93.0254C223.313 93.7831 222.431 94.355 222.418 95.1198C222.238 95.0305 222.067 94.9375 221.903 94.8446C221.831 94.8017 221.762 94.7624 221.693 94.7231C221.187 94.4669 220.746 94.082 220.405 93.6008C221.667 89.3727 226.497 85.9881 230.376 87.3713L231.842 87.8895C233.69 88.5436 235.226 89.9686 236.114 91.8531C237.183 92.7465 238.036 93.9108 238.599 95.2449C241.806 102.268 235.612 110.02 228.773 107.625Z" fill="#2F2E41"/>
<path d="M239.378 95.8724C241.299 95.8724 242.855 94.1757 242.855 92.0826C242.855 89.9896 241.299 88.2928 239.378 88.2928C237.458 88.2928 235.901 89.9896 235.901 92.0826C235.901 94.1757 237.458 95.8724 239.378 95.8724Z" fill="#2F2E41"/>
<path d="M283.551 99.8125C282.813 103.464 281.338 106.89 279.233 109.841C277.127 112.792 274.444 115.194 271.379 116.871C270.989 117.082 270.592 117.279 270.192 117.461C270.228 115.694 269.762 113.957 268.858 112.49C269.005 113.679 269.022 114.884 268.91 116.078C268.849 116.763 268.745 117.442 268.599 118.112C266.026 119.036 263.325 119.461 260.618 119.366C260.463 118.055 260.028 116.801 259.349 115.706C259.496 116.896 259.513 118.1 259.401 119.295C256.68 119.054 254.022 118.278 251.555 117.004C250.273 116.339 249.013 115.506 248.187 114.248C247.089 112.572 246.905 110.359 247.174 108.322C247.443 106.281 248.115 104.334 248.584 102.339C249.053 100.345 249.318 98.2113 248.768 96.242C248.22 94.2691 246.682 92.5142 244.797 92.3606C243.938 92.2891 243.075 92.5464 242.216 92.4606C241.357 92.3713 240.426 91.7458 240.406 90.8058L241.229 89.3476C241.577 86.7958 242.77 84.2653 244.816 82.968C246.859 81.667 249.797 81.9458 251.256 83.9758C252.486 85.6842 252.44 88.0574 252.843 90.184C253.781 95.1233 257.404 99.0976 261.614 101.192C265.828 103.283 270.569 103.722 275.199 103.637C276.786 103.605 278.399 103.512 279.908 102.965C281.419 102.414 282.829 101.356 283.551 99.8125Z" fill="#2F2E41"/>
<path d="M204.698 122.589L203.336 104.89C203.29 104.284 203.466 103.683 203.826 103.219C204.186 102.755 204.7 102.466 205.256 102.414L208.795 102.091C209.35 102.041 209.902 102.233 210.327 102.625C210.753 103.017 211.019 103.578 211.066 104.183L212.428 121.883C212.474 122.488 212.297 123.089 211.937 123.553C211.577 124.017 211.063 124.307 210.508 124.358L206.969 124.682C206.413 124.732 205.862 124.54 205.436 124.147C205.011 123.755 204.745 123.195 204.698 122.589V122.589Z" fill="#3F3D56"/>
<path d="M205.739 103.279C205.44 103.307 205.163 103.463 204.969 103.713C204.775 103.963 204.68 104.287 204.705 104.613L206.066 122.313C206.092 122.639 206.235 122.941 206.465 123.152C206.694 123.364 206.991 123.467 207.29 123.44L210.829 123.117C211.129 123.089 211.406 122.933 211.6 122.683C211.794 122.433 211.889 122.109 211.864 121.783L210.502 104.083C210.477 103.757 210.334 103.455 210.104 103.244C209.875 103.032 209.578 102.929 209.278 102.956L205.739 103.279Z" fill="#6C63FF"/>
<path d="M211.706 128.662L215.152 127.229L213.151 118.883L212.8 114.745C212.754 114.207 212.58 113.692 212.295 113.251C212.009 112.81 211.623 112.458 211.174 112.231C210.724 112.003 210.228 111.909 209.735 111.956C209.241 112.003 208.768 112.19 208.362 112.499V112.499C207.76 112.957 207.345 113.652 207.205 114.438C207.064 115.223 207.209 116.037 207.608 116.708L209.952 120.644L211.706 128.662Z" fill="#A0616A"/>
<path d="M215.288 125.738L210.694 127.649L212.98 139.352C213.145 140.193 213.505 140.972 214.027 141.616C214.549 142.26 215.215 142.746 215.96 143.026V143.026C216.879 143.373 217.875 143.391 218.804 143.079C219.733 142.766 220.546 142.14 221.126 141.289L231.434 125.79C232.161 124.723 232.477 123.389 232.315 122.073C232.152 120.756 231.524 119.56 230.563 118.742V118.742C230.047 118.302 229.451 117.985 228.815 117.812C228.179 117.64 227.516 117.615 226.871 117.74C226.225 117.865 225.611 118.136 225.068 118.537C224.525 118.938 224.066 119.458 223.72 120.065L217.206 131.968L215.288 125.738Z" fill="#E6E6E6"/>
<path opacity="0.2" d="M211.551 132.038L213.873 142.317L214.355 142.956C214.737 143.462 215.224 143.861 215.777 144.119C216.329 144.377 216.93 144.487 217.53 144.439C218.129 144.391 218.71 144.187 219.222 143.844C219.734 143.501 220.163 143.029 220.472 142.467L227.832 129.13L221.197 139.137C220.825 139.699 220.328 140.148 219.753 140.443C219.179 140.738 218.545 140.869 217.911 140.824C217.277 140.779 216.664 140.559 216.129 140.186C215.594 139.812 215.155 139.297 214.853 138.688L211.551 132.038Z" fill="black"/>
</g>
<defs>
<clipPath id="clip0_621:122">
<rect width="283.55" height="237" fill="white"/>
</clipPath>
</defs>
</svg>
