<svg width="297" height="188" viewBox="0 0 297 188" fill="none" xmlns="http://www.w3.org/2000/svg">
<g clip-path="url(#clip0_621:75)">
<path d="M72.6346 168.968L72.9638 161.418C76.3957 159.546 80.2236 158.558 84.115 158.538C78.7592 163.005 79.4286 171.614 75.7975 177.62C74.6509 179.485 73.1077 181.062 71.2823 182.235C69.4568 183.409 67.3959 184.148 65.2523 184.398L60.7704 187.197C60.1554 183.7 60.291 180.109 61.1678 176.67C62.0447 173.232 63.6419 170.028 65.8494 167.28C67.1028 165.751 68.54 164.389 70.1271 163.226C71.2006 166.113 72.6346 168.968 72.6346 168.968Z" fill="#F2F2F2"/>
<path d="M263.873 12.302H55.2323C55.1447 12.3 55.0614 12.2632 55.0001 12.1993C54.9388 12.1354 54.9045 12.0496 54.9045 11.9603C54.9045 11.8709 54.9388 11.7851 55.0001 11.7212C55.0614 11.6574 55.1447 11.6205 55.2323 11.6185H263.873C263.961 11.6205 264.044 11.6574 264.105 11.7212C264.167 11.7851 264.201 11.8709 264.201 11.9603C264.201 12.0496 264.167 12.1354 264.105 12.1993C264.044 12.2632 263.961 12.3 263.873 12.302Z" fill="#CACACA"/>
<path d="M62.6086 7.51791C64.5995 7.51791 66.2135 5.83497 66.2135 3.75896C66.2135 1.68294 64.5995 0 62.6086 0C60.6176 0 59.0037 1.68294 59.0037 3.75896C59.0037 5.83497 60.6176 7.51791 62.6086 7.51791Z" fill="#3F3D56"/>
<path d="M75.0619 7.51791C77.0529 7.51791 78.6669 5.83497 78.6669 3.75896C78.6669 1.68294 77.0529 0 75.0619 0C73.071 0 71.457 1.68294 71.457 3.75896C71.457 5.83497 73.071 7.51791 75.0619 7.51791Z" fill="#3F3D56"/>
<path d="M87.5152 7.51791C89.5061 7.51791 91.1201 5.83497 91.1201 3.75896C91.1201 1.68294 89.5061 0 87.5152 0C85.5243 0 83.9103 1.68294 83.9103 3.75896C83.9103 5.83497 85.5243 7.51791 87.5152 7.51791Z" fill="#3F3D56"/>
<path d="M256.411 0.931641H247.564C247.389 0.935191 247.222 1.00873 247.099 1.13647C246.976 1.26421 246.908 1.43597 246.908 1.61485C246.908 1.79374 246.976 1.96549 247.099 2.09323C247.222 2.22097 247.389 2.29452 247.564 2.29807H256.411C256.586 2.29452 256.753 2.22097 256.876 2.09323C256.998 1.96549 257.067 1.79374 257.067 1.61485C257.067 1.43597 256.998 1.26421 256.876 1.13647C256.753 1.00873 256.586 0.935191 256.411 0.931641V0.931641Z" fill="#3F3D56"/>
<path d="M256.411 3.49622H247.564C247.389 3.49977 247.222 3.57331 247.099 3.70105C246.976 3.82879 246.908 4.00054 246.908 4.17943C246.908 4.35831 246.976 4.53007 247.099 4.65781C247.222 4.78555 247.389 4.85909 247.564 4.86264H256.411C256.586 4.85909 256.753 4.78555 256.876 4.65781C256.998 4.53007 257.067 4.35831 257.067 4.17943C257.067 4.00054 256.998 3.82879 256.876 3.70105C256.753 3.57331 256.586 3.49977 256.411 3.49622V3.49622Z" fill="#3F3D56"/>
<path d="M256.411 6.0575H247.564C247.389 6.06105 247.222 6.13458 247.099 6.26232C246.976 6.39006 246.908 6.56182 246.908 6.74071C246.908 6.91959 246.976 7.09135 247.099 7.21909C247.222 7.34683 247.389 7.42037 247.564 7.42392H256.411C256.586 7.42037 256.753 7.34683 256.876 7.21909C256.998 7.09135 257.067 6.91959 257.067 6.74071C257.067 6.56182 256.998 6.39006 256.876 6.26232C256.753 6.13458 256.586 6.06105 256.411 6.0575Z" fill="#3F3D56"/>
<path d="M217.61 39.0884H74.4046C73.6989 39.0884 73.0222 39.3741 72.5229 39.8827C72.0237 40.3914 71.7427 41.0813 71.7418 41.801V110.752C71.7426 111.472 72.0234 112.162 72.5226 112.671C73.0218 113.181 73.6986 113.467 74.4046 113.468H217.61C218.316 113.466 218.992 113.18 219.49 112.67C219.989 112.161 220.269 111.471 220.27 110.752V41.801C220.269 41.0818 219.989 40.3923 219.49 39.8837C218.991 39.3751 218.315 39.0891 217.61 39.0884V39.0884Z" fill="#3F3D56"/>
<path d="M179.784 72.3068C179.079 72.3075 178.402 72.5935 177.904 73.1021C177.405 73.6107 177.125 74.3002 177.124 75.0194V94.4961C177.125 95.2156 177.405 95.9056 177.904 96.4147C178.402 96.9238 179.078 97.2106 179.784 97.2121H220.27V72.3068H179.784Z" fill="#6C63FF"/>
<path opacity="0.5" d="M288.345 97.2106H179.785C179.079 97.2098 178.403 96.9235 177.904 96.4146C177.405 95.9056 177.124 95.2156 177.124 94.4958V75.02C177.124 74.3003 177.405 73.6102 177.904 73.1013C178.403 72.5924 179.079 72.3061 179.785 72.3053H288.345C289.051 72.3061 289.727 72.5924 290.226 73.1013C290.725 73.6102 291.006 74.3003 291.007 75.02V94.4958C291.006 95.2156 290.725 95.9056 290.226 96.4146C289.727 96.9235 289.051 97.2098 288.345 97.2106Z" fill="#6C63FF"/>
<path d="M194.466 90.4083C196.851 90.4083 198.785 88.436 198.785 86.003C198.785 83.57 196.851 81.5977 194.466 81.5977C192.081 81.5977 190.147 83.57 190.147 86.003C190.147 88.436 192.081 90.4083 194.466 90.4083Z" fill="white"/>
<path d="M284.981 84.723H206.941C206.6 84.723 206.273 84.5848 206.032 84.3388C205.791 84.0928 205.655 83.7591 205.655 83.4112C205.655 83.0633 205.791 82.7296 206.032 82.4836C206.273 82.2376 206.6 82.0994 206.941 82.0994H284.981C285.323 82.0994 285.65 82.2376 285.891 82.4836C286.132 82.7296 286.268 83.0633 286.268 83.4112C286.268 83.7591 286.132 84.0928 285.891 84.3388C285.65 84.5848 285.323 84.723 284.981 84.723Z" fill="white"/>
<path d="M255.341 89.9067H206.941C206.6 89.9067 206.273 89.7685 206.032 89.5225C205.791 89.2765 205.655 88.9428 205.655 88.5948C205.655 88.2469 205.791 87.9132 206.032 87.6672C206.273 87.4212 206.6 87.283 206.941 87.283H255.341C255.682 87.283 256.009 87.4212 256.25 87.6672C256.492 87.9132 256.627 88.2469 256.627 88.5948C256.627 88.9428 256.492 89.2765 256.25 89.5225C256.009 89.7685 255.682 89.9067 255.341 89.9067V89.9067Z" fill="white"/>
<path d="M50.8794 183.605L54.6172 183.605L56.3954 168.899H50.8788L50.8794 183.605Z" fill="#FFB6B6"/>
<path d="M49.9261 182.36L50.9782 182.36L55.0857 180.656L57.2871 182.36H57.2874C58.5315 182.36 59.7246 182.864 60.6043 183.761C61.4841 184.659 61.9783 185.876 61.9784 187.145V187.3L49.9264 187.301L49.9261 182.36Z" fill="#2F2E41"/>
<path d="M17.1064 178.648L20.4519 180.349L28.4745 167.997L23.5373 165.487L17.1064 178.648Z" fill="#FFB6B6"/>
<path d="M16.7976 177.1L17.7392 177.579L22.1604 177.923L23.3856 180.449L23.3859 180.45C24.4993 181.016 25.3467 182.01 25.7416 183.213C26.1365 184.417 26.0466 185.731 25.4917 186.866L25.4237 187.005L14.6371 181.522L16.7976 177.1Z" fill="#2F2E41"/>
<path d="M52.5355 116.818L28.7699 117.451L29.1832 129.255C29.1832 129.255 28.7699 132.417 29.5965 133.26C30.4231 134.103 30.8365 134.103 30.4231 135.579C30.0098 137.054 28.9413 151.152 28.9413 151.152C28.9413 151.152 19.1872 168.744 19.6005 169.166C20.0138 169.587 20.4272 169.166 20.0138 170.22C19.6005 171.274 19.1872 170.852 19.6005 171.274C19.9666 171.676 20.3116 172.099 20.6338 172.539H27.3701C27.3701 172.539 27.7468 170.431 27.7468 170.22C27.7468 170.009 28.1601 168.744 28.1601 168.534C28.1601 168.323 39.9294 155.604 39.9294 155.604L42.4093 134.525L48.4024 155.182C48.4024 155.182 48.4024 173.31 48.8157 173.732C49.229 174.153 49.229 173.943 49.0223 174.786C48.8157 175.629 47.989 175.418 48.609 176.05C49.229 176.683 49.4357 175.629 49.229 176.683L49.0223 177.737L56.962 177.827C56.962 177.827 57.7886 176.05 57.3753 175.418C56.962 174.786 56.9868 174.958 57.491 173.923C57.9953 172.889 58.2019 172.678 57.9953 172.467C57.7886 172.256 57.7886 171.135 57.7886 171.135C57.7886 171.135 54.8088 129.676 54.8088 129.044C54.7932 128.719 54.8519 128.394 54.9804 128.096V127.237L54.1888 124.196L52.5355 116.818Z" fill="#2F2E41"/>
<path d="M287.881 80.218C286.077 80.218 284.314 79.6724 282.814 78.6503C281.314 77.6283 280.146 76.1755 279.455 74.4758C278.765 72.7761 278.585 70.9059 278.936 69.1015C279.288 67.2971 280.157 65.6397 281.432 64.3388C282.708 63.0379 284.333 62.152 286.102 61.7931C287.871 61.4342 289.704 61.6184 291.37 62.3224C293.037 63.0265 294.461 64.2187 295.463 65.7484C296.465 67.278 297 69.0765 297 70.9162C297 73.3832 296.039 75.7491 294.329 77.4936C292.619 79.238 290.299 80.218 287.881 80.218V80.218Z" fill="#6C63FF"/>
<path d="M291.479 69.9987H288.78V67.2459C288.78 67.0026 288.685 66.7692 288.517 66.5971C288.348 66.425 288.119 66.3284 287.881 66.3284C287.642 66.3284 287.413 66.425 287.244 66.5971C287.076 66.7692 286.981 67.0026 286.981 67.2459V69.9987H284.282C284.164 69.9984 284.047 70.022 283.938 70.068C283.828 70.114 283.729 70.1816 283.645 70.2668C283.561 70.352 283.495 70.4532 283.45 70.5647C283.404 70.6761 283.381 70.7956 283.381 70.9162C283.381 71.0369 283.404 71.1563 283.45 71.2678C283.495 71.3792 283.561 71.4804 283.645 71.5656C283.729 71.6509 283.828 71.7184 283.938 71.7644C284.047 71.8104 284.164 71.834 284.282 71.8338H286.981V74.5865C286.981 74.8298 287.076 75.0632 287.244 75.2353C287.413 75.4074 287.642 75.5041 287.881 75.5041C288.119 75.5041 288.348 75.4074 288.517 75.2353C288.685 75.0632 288.78 74.8298 288.78 74.5865V71.8338H291.479C291.717 71.8338 291.946 71.7371 292.115 71.565C292.284 71.393 292.378 71.1596 292.378 70.9162C292.378 70.6729 292.284 70.4395 292.115 70.2674C291.946 70.0953 291.717 69.9987 291.479 69.9987V69.9987Z" fill="white"/>
<path d="M148.705 97.3365H114.056C113.35 97.3373 112.673 97.6237 112.174 98.1329C111.675 98.6421 111.394 99.3325 111.393 100.053V113.468H151.364V100.053C151.364 99.333 151.083 98.643 150.585 98.1339C150.086 97.6248 149.41 97.338 148.705 97.3365V97.3365Z" fill="#6C63FF"/>
<path opacity="0.5" d="M148.704 135.031H114.055C113.349 135.03 112.672 134.744 112.174 134.235C111.675 133.726 111.394 133.036 111.393 132.316V100.051C111.394 99.3315 111.675 98.6415 112.174 98.1325C112.672 97.6236 113.349 97.3373 114.055 97.3365H148.704C149.409 97.3373 150.086 97.6236 150.585 98.1325C151.084 98.6415 151.364 99.3315 151.365 100.051V132.316C151.364 133.036 151.084 133.726 150.585 134.235C150.086 134.744 149.409 135.03 148.704 135.031Z" fill="#6C63FF"/>
<path d="M124.263 112.63C126.648 112.63 128.582 110.658 128.582 108.225C128.582 105.792 126.648 103.819 124.263 103.819C121.878 103.819 119.944 105.792 119.944 108.225C119.944 110.658 121.878 112.63 124.263 112.63Z" fill="white"/>
<path d="M141.527 119.326H121.23C120.889 119.326 120.562 119.188 120.321 118.942C120.08 118.696 119.944 118.362 119.944 118.014C119.944 117.666 120.08 117.332 120.321 117.086C120.562 116.84 120.889 116.702 121.23 116.702H141.527C141.869 116.702 142.196 116.84 142.437 117.086C142.678 117.332 142.814 117.666 142.814 118.014C142.814 118.362 142.678 118.696 142.437 118.942C142.196 119.188 141.869 119.326 141.527 119.326Z" fill="white"/>
<path d="M131.025 124.51H121.23C120.889 124.51 120.562 124.371 120.321 124.125C120.08 123.879 119.944 123.546 119.944 123.198C119.944 122.85 120.08 122.516 120.321 122.27C120.562 122.024 120.889 121.886 121.23 121.886H131.025C131.366 121.886 131.693 122.024 131.934 122.27C132.175 122.516 132.311 122.85 132.311 123.198C132.311 123.546 132.175 123.879 131.934 124.125C131.693 124.371 131.366 124.51 131.025 124.51V124.51Z" fill="white"/>
<path d="M113.332 144.501C111.529 144.501 109.766 143.955 108.266 142.933C106.766 141.911 105.597 140.458 104.907 138.758C104.217 137.059 104.036 135.188 104.388 133.384C104.74 131.58 105.609 129.922 106.884 128.621C108.159 127.321 109.784 126.435 111.553 126.076C113.322 125.717 115.156 125.901 116.822 126.605C118.489 127.309 119.913 128.501 120.915 130.031C121.917 131.561 122.452 133.359 122.452 135.199C122.452 137.666 121.491 140.032 119.781 141.776C118.07 143.521 115.751 144.501 113.332 144.501V144.501Z" fill="#6C63FF"/>
<path d="M116.931 134.281H114.232V131.529C114.232 131.285 114.137 131.052 113.968 130.88C113.8 130.708 113.571 130.611 113.332 130.611C113.094 130.611 112.865 130.708 112.696 130.88C112.527 131.052 112.433 131.285 112.433 131.529V134.281H109.734C109.616 134.281 109.498 134.305 109.389 134.351C109.28 134.397 109.18 134.464 109.097 134.549C109.013 134.635 108.947 134.736 108.901 134.847C108.856 134.959 108.833 135.078 108.833 135.199C108.833 135.319 108.856 135.439 108.901 135.55C108.947 135.662 109.013 135.763 109.097 135.848C109.18 135.933 109.28 136.001 109.389 136.047C109.498 136.093 109.616 136.117 109.734 136.116H112.433V138.869C112.433 139.112 112.527 139.346 112.696 139.518C112.865 139.69 113.094 139.787 113.332 139.787C113.571 139.787 113.8 139.69 113.968 139.518C114.137 139.346 114.232 139.112 114.232 138.869V136.116H116.931C117.169 136.116 117.398 136.02 117.567 135.848C117.735 135.676 117.83 135.442 117.83 135.199C117.83 134.955 117.735 134.722 117.567 134.55C117.398 134.378 117.169 134.281 116.931 134.281Z" fill="white"/>
<path d="M109.111 76.825H74.4619C73.7562 76.8242 73.0797 76.5379 72.5807 76.029C72.0818 75.52 71.8011 74.83 71.8003 74.1102V41.8452C71.8011 41.1254 72.0818 40.4354 72.5808 39.9265C73.0797 39.4176 73.7562 39.1313 74.4619 39.1305H109.111C109.817 39.1313 110.493 39.4176 110.992 39.9265C111.491 40.4354 111.772 41.1254 111.772 41.8452V74.1102C111.772 74.83 111.491 75.52 110.992 76.029C110.493 76.5379 109.817 76.8242 109.111 76.825V76.825Z" fill="#6C63FF"/>
<path d="M84.6706 57.1165C87.0559 57.1165 88.9896 55.1441 88.9896 52.7111C88.9896 50.2781 87.0559 48.3058 84.6706 48.3058C82.2853 48.3058 80.3517 50.2781 80.3517 52.7111C80.3517 55.1441 82.2853 57.1165 84.6706 57.1165Z" fill="#6C63FF"/>
<path d="M101.935 62.466H81.6378C81.2967 62.466 80.9696 62.3278 80.7284 62.0818C80.4872 61.8358 80.3517 61.5021 80.3517 61.1542C80.3517 60.8063 80.4872 60.4726 80.7284 60.2266C80.9696 59.9806 81.2967 59.8424 81.6378 59.8424H101.935C102.276 59.8424 102.603 59.9806 102.844 60.2266C103.086 60.4726 103.221 60.8063 103.221 61.1542C103.221 61.5021 103.086 61.8358 102.844 62.0818C102.603 62.3278 102.276 62.466 101.935 62.466V62.466Z" fill="#6C63FF"/>
<path d="M91.4322 67.6496H81.6378C81.2967 67.6496 80.9696 67.5114 80.7284 67.2654C80.4872 67.0194 80.3517 66.6857 80.3517 66.3378C80.3517 65.9898 80.4872 65.6561 80.7284 65.4101C80.9696 65.1641 81.2967 65.0259 81.6378 65.0259H91.4322C91.7734 65.0259 92.1005 65.1641 92.3417 65.4101C92.5829 65.6561 92.7184 65.9898 92.7184 66.3378C92.7184 66.6857 92.5829 67.0194 92.3417 67.2654C92.1005 67.5114 91.7734 67.6496 91.4322 67.6496V67.6496Z" fill="#6C63FF"/>
<path opacity="0.5" d="M109.111 76.825H74.4619C73.7562 76.8242 73.0797 76.5379 72.5807 76.029C72.0818 75.52 71.8011 74.83 71.8003 74.1102V41.8452C71.8011 41.1254 72.0818 40.4354 72.5808 39.9265C73.0797 39.4176 73.7562 39.1313 74.4619 39.1305H109.111C109.817 39.1313 110.493 39.4176 110.992 39.9265C111.491 40.4354 111.772 41.1254 111.772 41.8452V74.1102C111.772 74.83 111.491 75.52 110.992 76.029C110.493 76.5379 109.817 76.8242 109.111 76.825V76.825Z" fill="#6C63FF"/>
<path d="M84.6706 57.1165C87.0559 57.1165 88.9896 55.1441 88.9896 52.7111C88.9896 50.2781 87.0559 48.3058 84.6706 48.3058C82.2853 48.3058 80.3517 50.2781 80.3517 52.7111C80.3517 55.1441 82.2853 57.1165 84.6706 57.1165Z" fill="white"/>
<path d="M101.935 62.466H81.6378C81.2967 62.466 80.9696 62.3278 80.7284 62.0818C80.4872 61.8358 80.3517 61.5021 80.3517 61.1542C80.3517 60.8063 80.4872 60.4726 80.7284 60.2266C80.9696 59.9806 81.2967 59.8424 81.6378 59.8424H101.935C102.276 59.8424 102.603 59.9806 102.844 60.2266C103.086 60.4726 103.221 60.8063 103.221 61.1542C103.221 61.5021 103.086 61.8358 102.844 62.0818C102.603 62.3278 102.276 62.466 101.935 62.466V62.466Z" fill="white"/>
<path d="M91.4322 67.6496H81.6378C81.2967 67.6496 80.9696 67.5114 80.7284 67.2654C80.4872 67.0194 80.3517 66.6857 80.3517 66.3378C80.3517 65.9898 80.4872 65.6561 80.7284 65.4101C80.9696 65.1641 81.2967 65.0259 81.6378 65.0259H91.4322C91.7734 65.0259 92.1005 65.1641 92.3417 65.4101C92.5829 65.6561 92.7184 65.9898 92.7184 66.3378C92.7184 66.6857 92.5829 67.0194 92.3417 67.2654C92.1005 67.5114 91.7734 67.6496 91.4322 67.6496V67.6496Z" fill="white"/>
<path d="M75.1767 46.0922C79.0036 46.0922 82.1058 42.9279 82.1058 39.0245C82.1058 35.1211 79.0036 31.9568 75.1767 31.9568C71.3498 31.9568 68.2476 35.1211 68.2476 39.0245C68.2476 42.9279 71.3498 46.0922 75.1767 46.0922Z" fill="#FF6584"/>
<path d="M94.1912 187.054C94.1914 187.107 94.1813 187.159 94.1616 187.208C94.142 187.256 94.113 187.301 94.0765 187.338C94.0401 187.375 93.9967 187.404 93.949 187.425C93.9013 187.445 93.8502 187.455 93.7985 187.455H1.31428C1.21015 187.455 1.11027 187.413 1.03664 187.337C0.962999 187.262 0.921631 187.16 0.921631 187.054C0.921631 186.948 0.962999 186.846 1.03664 186.771C1.11027 186.696 1.21015 186.654 1.31428 186.654H93.7985C93.8502 186.654 93.9013 186.664 93.949 186.684C93.9967 186.704 94.0401 186.733 94.0765 186.771C94.113 186.808 94.142 186.852 94.1616 186.901C94.1813 186.949 94.1914 187.002 94.1912 187.054V187.054Z" fill="#CCCCCC"/>
<path d="M73.6958 57.7454C73.9806 58.5577 73.9411 59.4518 73.5856 60.2347C73.2302 61.0176 72.5873 61.6266 71.7956 61.9305C71.6205 61.9972 71.4399 62.048 71.256 62.0822L69.426 73.5116L65.1332 69.4686L67.5291 59.235C67.4404 58.3726 67.688 57.5093 68.2184 56.8317C68.7488 56.1541 69.5193 55.7166 70.3634 55.6138C71.0735 55.5308 71.7902 55.6965 72.3958 56.0839C73.0013 56.4712 73.4598 57.0571 73.6957 57.7453L73.6958 57.7454Z" fill="#FFB6B6"/>
<path d="M42.0149 83.6428C42.0149 83.6428 45.3466 79.1527 57.4368 79.2757L64.2992 76.7325L65.8676 62.0686L71.3567 63.4017L70.5726 81.5316L58.8101 88.4636L43.3882 91.663L42.0149 83.6428Z" fill="#3F3D56"/>
<path d="M40.2446 74.2886C44.2077 74.2886 47.4204 71.0117 47.4204 66.9693C47.4204 62.927 44.2077 59.65 40.2446 59.65C36.2816 59.65 33.0688 62.927 33.0688 66.9693C33.0688 71.0117 36.2816 74.2886 40.2446 74.2886Z" fill="#FFB6B6"/>
<path d="M28.0995 122.466C28.0868 122.466 28.0741 122.464 28.0619 122.461C27.9294 122.423 27.8247 122.393 28.3028 118.177L28.8188 114.844L28.3151 111.901L27.4677 111.036L28.8296 109.647L29.9724 106.336L27.995 103.347L25.7263 91.1249C25.3363 89.0158 25.6394 86.8344 26.5886 84.919C27.5378 83.0035 29.08 81.461 30.9762 80.5306L33.6019 79.7481L34.5573 77.961C34.8256 77.4591 35.2206 77.0396 35.7014 76.746C36.1821 76.4523 36.7312 76.2952 37.2916 76.2909L42.0999 76.2542C42.585 76.2505 43.0644 76.3615 43.5005 76.5784C43.9365 76.7954 44.3173 77.1124 44.6131 77.5046L46.2907 79.7289L53.2471 82.1392L52.0937 107.489C52.2769 107.646 52.4263 107.839 52.5324 108.057C52.6385 108.276 52.6991 108.514 52.7102 108.758C52.7214 109.001 52.6828 109.244 52.5971 109.472C52.5114 109.699 52.3803 109.906 52.2122 110.079C52.1398 110.154 52.0824 110.214 52.0469 110.254C51.9297 110.424 52.1497 111.693 52.4214 112.77L52.7698 114.42C52.658 114.501 52.564 114.605 52.4937 114.726C52.4234 114.846 52.3783 114.98 52.3613 115.119C52.3443 115.259 52.3558 115.4 52.395 115.534C52.4342 115.668 52.5003 115.793 52.5891 115.9L53.0334 116.435C53.1212 117.107 52.9445 117.786 52.542 118.324C52.1395 118.863 51.544 119.217 50.8862 119.308C44.5287 120.19 28.1327 122.466 28.0995 122.466Z" fill="#3F3D56"/>
<path d="M38.409 73.9301C38.3783 73.8613 38.3477 73.7922 38.3173 73.7229C38.329 73.7233 38.3406 73.725 38.3524 73.7253L38.409 73.9301Z" fill="#2F2E41"/>
<path d="M32.8692 59.9828C33.2099 59.6549 33.6528 59.4596 34.1204 59.431C34.5844 59.4463 35.0549 59.8738 34.9588 60.3371C35.8111 58.7978 37.1677 57.6139 38.7905 56.9932C40.4133 56.3726 42.1986 56.3547 43.833 56.9429C44.9862 57.3579 46.1172 58.1882 46.3821 59.406C46.4079 59.7257 46.5014 60.0359 46.6561 60.3152C46.7902 60.4646 46.9642 60.5706 47.1566 60.6203C47.349 60.6701 47.5515 60.6613 47.7391 60.5951L47.7505 60.5917C47.8147 60.5693 47.884 60.5671 47.9495 60.5854C48.0149 60.6036 48.0735 60.6415 48.1176 60.6941C48.1618 60.7467 48.1894 60.8115 48.197 60.8803C48.2046 60.9491 48.1918 61.0186 48.1602 61.0799L47.8339 61.7006C48.2452 61.7941 48.6726 61.7849 49.0797 61.6736C49.1473 61.6555 49.2188 61.6592 49.2843 61.6842C49.3497 61.7091 49.406 61.7542 49.4455 61.8131C49.4849 61.872 49.5054 61.9418 49.5043 62.0131C49.5033 62.0844 49.4806 62.1537 49.4394 62.2113C48.8971 62.9681 48.1891 63.5853 47.3718 64.0138C46.5544 64.4423 45.6503 64.6704 44.7314 64.6797C43.4276 64.6716 42.1103 64.2133 40.8414 64.5191C40.3505 64.6374 39.8918 64.8663 39.499 65.189C39.1062 65.5117 38.7891 65.9201 38.5712 66.384C38.3532 66.848 38.2399 67.3559 38.2395 67.8704C38.2391 68.3849 38.3516 68.8929 38.5688 69.3573C38.179 68.9224 37.4254 69.0254 37.0267 69.4518C36.8431 69.68 36.7073 69.9443 36.6279 70.2282C36.5485 70.5122 36.527 70.8097 36.5649 71.1025C36.6712 71.9991 36.9322 72.8694 37.3358 73.6733C35.794 73.6249 34.3039 73.095 33.0668 72.1552C31.8296 71.2154 30.9051 69.911 30.4181 68.4181C29.931 66.9252 29.9049 65.3158 30.3432 63.8073C30.7816 62.2988 31.6633 60.9638 32.8692 59.9828L32.8692 59.9828Z" fill="#2F2E41"/>
<path d="M30.895 132.963C30.209 132.459 29.7448 131.699 29.6027 130.849C29.4606 129.998 29.6519 129.125 30.1353 128.417C30.2426 128.261 30.3632 128.114 30.4957 127.98L25.6534 117.505L31.4366 118.355L35.1482 128.172C35.7004 128.831 35.976 129.685 35.9155 130.55C35.855 131.415 35.4633 132.221 34.8249 132.793C34.286 133.272 33.6033 133.55 32.8892 133.581C32.175 133.612 31.4718 133.394 30.895 132.963H30.895Z" fill="#FFB6B6"/>
<path d="M29.4286 127.244L21.7234 109.58L21.6462 95.6294L24.0751 88.0937C24.4046 87.0713 24.9317 86.1267 25.6253 85.3157C26.3188 84.5046 27.1647 83.8436 28.113 83.3717C29.0613 82.8998 30.0926 82.6266 31.1462 82.5683C32.1997 82.5099 33.2541 82.6675 34.2469 83.0319L34.3004 83.0515L34.3228 83.1048C34.4126 83.3185 36.4497 88.4582 30.4071 99.0315L29.1911 106.266L33.4581 122.85L29.4286 127.244Z" fill="#3F3D56"/>
</g>
<defs>
<clipPath id="clip0_621:75">
<rect width="296.078" height="187.455" fill="white" transform="translate(0.921631)"/>
</clipPath>
</defs>
</svg>
