<svg width="296" height="234" viewBox="0 0 296 234" fill="none" xmlns="http://www.w3.org/2000/svg">
<g clip-path="url(#clip0_621:28)">
<path d="M96.1034 224.362C95.8229 224.374 95.5452 224.307 95.308 224.17C95.0707 224.033 94.8854 223.834 94.7771 223.598C94.6688 223.362 94.6427 223.101 94.7024 222.852C94.7621 222.602 94.9047 222.375 95.1109 222.201C95.1454 222.076 95.1702 221.987 95.2047 221.862C95.1924 221.835 95.18 221.807 95.1675 221.78C94.8849 221.173 94.4114 220.655 93.8065 220.291C93.2016 219.928 92.4922 219.735 91.7674 219.738C91.0426 219.74 90.3348 219.937 89.7329 220.305C89.1309 220.672 88.6617 221.194 88.3841 221.803C87.2746 224.236 85.8621 226.673 85.5143 229.245C85.3612 230.382 85.4258 231.534 85.7053 232.651C83.0995 227.476 81.7464 221.852 81.7377 216.159C81.7371 214.73 81.8243 213.303 81.9988 211.883C82.143 210.719 82.3431 209.564 82.599 208.417C83.9957 202.192 86.9944 196.357 91.3488 191.392C93.4563 190.345 95.1607 188.735 96.2323 186.779C96.6205 186.076 96.8949 185.326 97.0469 184.551C96.8091 184.579 96.5675 184.597 96.3297 184.611C96.2557 184.615 96.1777 184.618 96.1037 184.622L96.0758 184.623C95.8145 184.634 95.5554 184.575 95.3296 184.455C95.1039 184.335 94.9212 184.158 94.8034 183.945C94.6857 183.733 94.638 183.493 94.666 183.257C94.6941 183.02 94.7967 182.796 94.9615 182.611C95.0641 182.496 95.1668 182.381 95.2696 182.266C95.4255 182.089 95.5853 181.915 95.7412 181.737C95.7592 181.72 95.7761 181.703 95.7919 181.684C95.9712 181.482 96.1504 181.283 96.3297 181.081C96.0025 180.618 95.5623 180.231 95.0436 179.949C93.2469 178.991 90.7681 179.654 89.4702 181.134C88.1685 182.614 87.9229 184.689 88.375 186.538C88.8196 188.111 89.5551 189.604 90.5498 190.952C90.4524 191.066 90.351 191.176 90.2536 191.289C88.4724 193.374 86.92 195.613 85.6186 197.974C85.9351 195.329 85.5574 192.654 84.5165 190.168C83.4616 187.851 81.4844 185.9 79.7432 183.897C77.6517 181.491 73.3629 182.541 72.9944 185.591C72.9909 185.62 72.9874 185.65 72.984 185.679C73.2426 185.812 73.4958 185.953 73.7435 186.102C74.0547 186.292 74.2958 186.562 74.4353 186.878C74.5747 187.194 74.606 187.542 74.5251 187.874C74.4441 188.207 74.2547 188.509 73.9816 188.742C73.7085 188.975 73.3645 189.128 72.9946 189.18L72.9567 189.185C73.0489 190.034 73.2117 190.875 73.4439 191.701C74.1167 194.007 75.3055 196.162 76.9359 198.03C78.5663 199.899 80.6031 201.44 82.9186 202.558C83.0706 202.629 83.2187 202.7 83.3707 202.768C82.0632 206.141 81.2431 209.655 80.9309 213.221C80.7542 215.325 80.7646 217.438 80.9621 219.54L80.9504 219.466C80.4515 217.128 79.0817 215.019 77.0724 213.494C74.0881 211.262 69.8718 210.44 66.6523 208.646C66.3101 208.446 65.9123 208.34 65.5057 208.339C65.099 208.338 64.7006 208.443 64.3574 208.641C64.0142 208.84 63.7405 209.123 63.5685 209.459C63.3966 209.794 63.3336 210.168 63.387 210.535C63.3913 210.561 63.3957 210.587 63.4002 210.613C63.8801 210.791 64.3474 210.996 64.7993 211.227C65.058 211.36 65.3111 211.501 65.5588 211.65C65.87 211.839 66.1111 212.109 66.2506 212.426C66.3901 212.742 66.4214 213.089 66.3404 213.422C66.2595 213.754 66.0701 214.057 65.797 214.29C65.5239 214.523 65.1798 214.675 64.81 214.727L64.7721 214.732C64.7448 214.736 64.7214 214.74 64.6942 214.743C65.5142 216.526 66.6651 218.166 68.0966 219.594C69.8649 221.321 72.0022 222.701 74.3774 223.65C76.7525 224.599 79.3155 225.096 81.9092 225.111H81.9131C82.6172 227.896 83.6373 230.608 84.957 233.201H95.8309C95.8699 233.091 95.9049 232.977 95.94 232.867C94.9335 232.925 93.923 232.87 92.9311 232.704C93.7379 231.803 94.5447 230.895 95.3515 229.993C95.3695 229.977 95.3864 229.959 95.4021 229.94C95.8114 229.479 96.2245 229.021 96.6337 228.56L96.6339 228.559C96.6558 227.145 96.4775 225.735 96.1037 224.362L96.1034 224.362Z" fill="#F2F2F2"/>
<path d="M132.545 34C132.545 40.6695 128.88 47.4563 121.554 47.4563C114.228 47.4563 104.121 42.6259 106.395 32.2748C107.831 25.7349 111.954 21.9238 119.28 21.9238C122.798 21.9238 126.172 23.1961 128.66 25.4609C131.147 27.7256 132.545 30.7972 132.545 34V34Z" fill="#2F2E41"/>
<path d="M101.814 129.29C102.213 128.887 102.511 128.409 102.685 127.889C102.859 127.37 102.907 126.823 102.823 126.285C102.74 125.748 102.529 125.234 102.203 124.779C101.878 124.324 101.447 123.939 100.941 123.652L104.148 110.785L97.0994 113.199L95.1348 125.048C94.6616 125.854 94.5295 126.79 94.7636 127.679C94.9977 128.567 95.5818 129.347 96.4051 129.87C97.2284 130.393 98.2338 130.622 99.2307 130.515C100.228 130.409 101.147 129.972 101.814 129.29V129.29Z" fill="#FFB8B8"/>
<path d="M116.776 83.6817L111.856 84.1377C111.856 84.1377 113.143 90.7729 111.131 92.2675C109.119 93.762 109.93 93.7549 109.941 94.8626C109.953 95.9702 109.161 97.8234 107.551 98.9452C105.94 100.067 102.591 120.046 102.591 120.046L95.291 120.11C95.5088 118.391 95.4905 116.655 95.2365 114.941C94.8037 112.36 92.6159 105.858 93.4154 104.744C94.2148 103.629 93.7939 101.579 93.7706 99.3638C93.7472 97.1486 97.2282 99.5963 97.1893 95.9042C97.1504 92.2121 101.615 69.0442 101.175 65.7249C100.734 62.4055 105.164 59.4128 105.164 59.4128L109.219 59.3774L116.776 83.6817Z" fill="#6C63FF"/>
<path d="M169.005 52.5232C169.128 53.0252 169.129 53.5456 169.006 54.0478C168.884 54.5499 168.643 55.0216 168.299 55.4296C167.955 55.8375 167.517 56.1719 167.016 56.409C166.514 56.6462 165.962 56.7804 165.398 56.8023L161.451 68.7763L156.874 63.792L161.324 53.1854C161.346 52.3198 161.717 51.4917 162.365 50.8582C163.014 50.2247 163.895 49.8297 164.842 49.7481C165.788 49.6664 166.735 49.9039 167.503 50.4153C168.27 50.9268 168.805 51.6768 169.005 52.5232V52.5232Z" fill="#FFB8B8"/>
<path d="M127.337 56.4233C127.337 56.4233 136.878 53.1663 142.051 71.0024L148.918 77.4772L154.687 67.9866L153.925 65.7352L158.383 56.5328L166.028 60.5269L164.146 66.8449L164.464 69.9681L162.637 71.9107L159.647 81.9505L157.776 85.2306C157.776 85.2306 155.417 89.4304 151.299 90.1222C150.201 90.3094 149.078 90.3384 147.97 90.2082C145.802 89.9505 143.425 89.0406 140.983 87.0322C131.922 79.5816 126.563 73.8341 126.563 73.8341L127.337 56.4233Z" fill="#6C63FF"/>
<path d="M173.336 60.2168L156.351 45.2933C156.258 45.2119 156.203 45.1013 156.198 44.9843C156.192 44.8673 156.236 44.7527 156.32 44.6642C156.405 44.5758 156.523 44.5201 156.651 44.5088C156.779 44.4974 156.907 44.5312 157.009 44.6032L175.018 57.3768L173.336 60.2168Z" fill="#3F3D56"/>
<path d="M180.331 61.871C179.479 62.1434 178.595 62.3233 177.697 62.4068C177.239 62.4477 176.781 62.4624 176.326 62.4674C176.167 62.4724 176.005 62.473 175.846 62.4748C175.468 62.4799 175.09 62.485 174.709 62.4889C174.387 62.4946 174.062 62.499 173.742 62.5014C173.271 62.5081 172.753 62.4991 172.415 62.1976C172.272 62.0455 172.168 61.8664 172.11 61.6733C172.052 61.4801 172.042 61.2777 172.081 61.0806C172.156 60.6685 172.293 60.2678 172.488 59.8898C172.896 58.997 173.307 58.1053 173.715 57.2125L173.651 56.7128C174.399 56.6142 175.161 56.6355 175.901 56.7757C176.203 56.846 176.487 56.9712 176.735 57.1439C176.983 57.3166 177.19 57.5332 177.343 57.7806C177.407 57.8918 177.459 58.009 177.496 58.1301C177.655 58.6622 177.541 59.2526 177.609 59.8093C177.625 59.9251 177.648 60.0399 177.68 60.1531C177.767 60.4878 177.935 60.8008 178.17 61.0698C178.406 61.3387 178.704 61.557 179.043 61.7091C179.448 61.8712 179.894 61.9273 180.331 61.871V61.871Z" fill="#CCCCCC"/>
<path d="M181.526 61.4383C181.171 61.6672 180.762 61.8155 180.331 61.8709C180.737 61.745 181.136 61.6006 181.526 61.4383V61.4383Z" fill="#E6E6E6"/>
<path d="M180.331 61.8709C179.479 62.1434 178.595 62.3232 177.697 62.4068C177.239 62.4477 176.781 62.4624 176.326 62.4673C176.167 62.4724 176.005 62.473 175.846 62.4748C175.468 62.4799 175.09 62.485 174.709 62.4889C174.728 62.3145 174.756 62.1412 174.795 61.9696C175.151 60.3678 176.186 59.0058 177.343 57.7806C177.407 57.8918 177.459 58.009 177.496 58.1301C177.655 58.6622 177.541 59.2526 177.609 59.8092C177.625 59.925 177.648 60.0398 177.68 60.153C177.767 60.4878 177.935 60.8008 178.17 61.0697C178.406 61.3387 178.704 61.557 179.043 61.7091C179.448 61.8712 179.894 61.9272 180.331 61.8709V61.8709Z" fill="#6C63FF"/>
<path d="M114.539 86.2892L113.864 89.2175L113.291 100.018L136.347 97.1764L138.117 84.6696L135.67 81.0088L114.539 86.2892Z" fill="#FFB6B6"/>
<path d="M131.593 42.1126C134.483 37.2984 132.54 31.2623 127.252 28.6306C121.964 25.9989 115.334 27.7682 112.443 32.5824C109.553 37.3966 111.496 43.4327 116.784 46.0643C122.072 48.696 128.702 46.9268 131.593 42.1126Z" fill="#FFB7B7"/>
<path d="M105.578 72.8292L102.578 65.7318C102.576 62.7605 103.681 59.8765 105.711 57.5501C107.741 55.2237 110.578 53.5924 113.757 52.9221L113.798 52.9133L115.956 50.2665L124.722 51.0649L126.329 54.0546L132.681 57.4981L139.906 65.1996C142.181 66.687 143.533 68.5941 143.924 70.8686C144.754 75.6972 141.04 80.5286 140.599 81.0826L139.461 86.9182L113.145 90.3515L112.944 90.3747L105.578 72.8292Z" fill="#6C63FF"/>
<path d="M110.598 39.9518C110.697 39.9375 110.796 39.9186 110.895 39.9043C112.597 39.6295 114.299 39.3594 115.996 39.0798L116.152 35.5778L118.208 38.7149C122.898 40.1318 127.286 39.331 131.414 37.5634C132.775 36.9749 134.096 36.3119 135.37 35.5778C136.258 30.645 134.018 26.7575 128.265 26.2613C128.086 26.2459 127.958 26.1097 127.801 26.0385C127.801 26.0385 127.8 26.0384 127.799 26.0382C127.799 26.0379 127.798 26.0376 127.798 26.0371C127.797 26.0367 127.797 26.0362 127.797 26.0356C127.796 26.035 127.796 26.0344 127.796 26.0338C127.531 25.92 127.26 25.8111 126.989 25.7116C124.87 24.9576 122.56 24.7667 120.326 25.161C118.093 25.5552 116.028 26.5185 114.372 27.9388C111.041 30.8343 109.542 35.6157 110.598 39.9518Z" fill="#2F2E41"/>
<path d="M130.612 208.59L136.872 211.209L150.946 190.472L141.707 186.606L130.612 208.59Z" fill="#FFB6B6"/>
<path d="M130.478 205.129L140.646 208.731L138.697 212.591L145.12 222.443C145.437 222.93 145.575 223.496 145.514 224.059C145.453 224.622 145.195 225.152 144.78 225.573C144.364 225.993 143.811 226.282 143.203 226.396C142.594 226.511 141.961 226.445 141.396 226.209L129.615 221.28L129.511 216.612L126.791 220.098L122.349 218.24L130.478 205.129Z" fill="#2F2E41"/>
<path d="M103.246 221.456H110.135L113.413 197.263L103.245 197.264L103.246 221.456Z" fill="#FFB6B6"/>
<path d="M99.4991 171.813L99.4989 171.748L102.087 167.688L99.4443 162.403L99.2567 130.284C98.2159 107.073 113.007 95.9154 113.123 95.8058L113.444 95.5022L137.165 94.9737C137.165 94.9737 149.633 128.295 159.537 158.318C160.123 160.093 161.778 161.843 161.263 163.6C157.179 177.534 152.332 193.305 149.221 193.751L139.367 188.92L141.198 164.771L140.072 162.142C138.055 161.804 132.812 143.278 132.812 143.278C131.933 142.328 131.978 139.745 131.978 139.745L125.11 133.18L118.779 163.44L120.345 172.466L119.049 175.569L113.502 201.189L113.443 201.602L102.984 200.651L99.4991 171.813Z" fill="#2F2E41"/>
<path d="M100.913 218.362L111.804 217.77V222.018L122.158 228.529C122.67 228.85 123.055 229.312 123.257 229.847C123.46 230.382 123.47 230.962 123.285 231.502C123.1 232.042 122.73 232.514 122.229 232.85C121.729 233.185 121.123 233.366 120.502 233.366H107.536L105.301 229.164L104.428 233.366H99.5396L100.913 218.362Z" fill="#2F2E41"/>
<path d="M114.779 25.7871V25.7955C114.78 26.3155 114.708 26.8334 114.562 27.3363C114.539 27.4244 114.512 27.5168 114.479 27.605V27.6092C114.17 28.5072 113.636 29.3279 112.92 30.0067C112.204 30.6856 111.325 31.2042 110.352 31.522C110.209 31.5724 110.061 31.6144 109.914 31.6522C109.603 31.7343 109.285 31.7932 108.964 31.8285C108.675 31.8657 108.384 31.884 108.092 31.8831C107.864 31.8839 107.637 31.8741 107.41 31.8537C106.879 31.8048 106.357 31.6962 105.856 31.5304C105.777 31.5096 105.7 31.4844 105.625 31.4548C105.588 31.4426 105.551 31.4286 105.515 31.4129C104.678 31.0941 103.921 30.6238 103.29 30.0306C102.659 29.4374 102.168 28.7337 101.845 27.9622C101.522 27.1907 101.374 26.3674 101.411 25.5425C101.448 24.7175 101.669 23.908 102.06 23.1631L102.065 23.1589C102.393 22.534 102.838 21.9657 103.379 21.4796C104.588 20.3838 105.12 17.6377 106.955 17.6377C107.043 17.6363 107.131 17.6391 107.218 17.6461C108.45 17.6839 110.726 20.1025 111.694 20.6735C112.413 21.0872 113.037 21.6248 113.529 22.2563C114.044 22.9058 114.411 23.6423 114.608 24.4226C114.722 24.8701 114.779 25.3279 114.779 25.7871V25.7871Z" fill="#2F2E41"/>
<path d="M106.609 23.6673C105.571 24.7679 103.945 25.1958 102.478 25.7686C99.8897 26.8024 97.6172 28.3955 95.8578 30.4096C94.0985 32.4238 92.9054 34.7983 92.3819 37.3272C91.9764 39.387 92.0294 41.5194 91.3889 43.5275C90.7522 45.5355 89.1756 47.5057 86.913 47.8542C85.3819 48.0922 83.847 47.554 82.4069 47.0226C81.6148 46.7328 80.8227 46.4418 80.0306 46.1497C80.8568 44.2624 81.6817 42.375 82.5054 40.4877C81.1816 42.2688 79.6421 43.9089 77.9158 45.3768C75.0772 44.3348 72.236 43.2928 69.3923 42.2508C76.3885 42.275 75.1947 36.0919 76.7599 29.8883C77.6202 26.4793 84.9461 24.171 86.3825 20.9277C87.1586 19.1686 88.4721 17.6487 90.1675 16.5479C91.8628 15.4471 93.8691 14.8116 95.9488 14.7165C98.0285 14.6214 100.095 15.0707 101.903 16.0112C103.711 16.9518 105.185 18.3442 106.151 20.0237C107.587 20.5447 107.629 22.5804 106.609 23.6673Z" fill="#2F2E41"/>
<path d="M136.324 96.4943C137.934 96.8765 139.419 97.607 140.652 98.6238C141.885 99.6406 142.83 100.914 143.406 102.334C143.717 103.151 143.912 104.12 143.376 104.897C143.213 105.176 142.944 105.391 142.619 105.503C142.295 105.615 141.937 105.616 141.612 105.506C140.913 105.244 140.432 104.594 140.076 104.017C139.606 103.203 139.201 102.358 138.866 101.489C138.317 100.179 137.146 97.9915 138.818 96.9671C140.224 96.1054 142.086 96.4401 143.668 96.381C145.378 96.3172 147.278 95.7211 147.885 94.1078C148.476 92.5389 147.091 91.0631 145.598 90.4665C144.701 90.1277 143.725 89.9944 142.758 90.0783C141.791 90.1622 140.861 90.4607 140.05 90.9477C138.446 91.9594 137.302 93.4671 136.828 95.19C136.794 95.3206 136.817 95.4582 136.892 95.5738C136.967 95.6894 137.088 95.774 137.23 95.8096C137.373 95.8453 137.524 95.8294 137.654 95.7651C137.783 95.7008 137.881 95.5933 137.925 95.4652C138.394 93.9049 139.409 92.4368 140.994 91.6372C142.477 90.8886 144.512 90.8425 145.896 91.8116C146.58 92.2909 147.118 93.0886 146.768 93.8807C146.446 94.6076 145.608 95.0398 144.81 95.2154C143.006 95.6125 141.12 95.0986 139.322 95.6231C137.607 96.1233 136.619 97.4002 136.866 99.0569C137.053 99.9878 137.356 100.896 137.769 101.765C138.12 102.657 138.531 103.53 138.998 104.378C139.712 105.606 140.999 106.935 142.698 106.575C144.634 106.165 145.093 104.107 144.678 102.594C143.732 99.1424 140.336 96.3781 136.626 95.4962C136.483 95.465 136.332 95.4858 136.205 95.5541C136.078 95.6224 135.985 95.7329 135.946 95.8623C135.907 95.9918 135.924 96.13 135.995 96.2479C136.065 96.3658 136.183 96.4541 136.324 96.4943V96.4943Z" fill="#2F2E41"/>
<path d="M153.339 190.764C152.535 189.898 151.388 189.37 150.274 188.865L140.927 184.626L140.661 186.137C140.307 185.143 138.572 185.07 137.869 185.895C137.166 186.72 137.391 187.967 138.077 188.804C138.763 189.64 139.804 190.163 140.813 190.66C143.049 191.762 145.286 192.864 147.522 193.966C148.564 194.479 149.64 195.002 150.818 195.12C151.996 195.237 153.315 194.85 153.902 193.913C154.518 192.929 154.142 191.629 153.339 190.764Z" fill="#2F2E41"/>
<path d="M116.976 198.657C115.832 198.21 114.547 198.203 113.302 198.204C109.821 198.207 106.34 198.209 102.859 198.212L103.362 199.671C102.559 198.926 100.971 199.566 100.746 200.59C100.522 201.614 101.334 202.638 102.359 203.108C103.383 203.578 104.571 203.622 105.717 203.656C108.259 203.733 110.801 203.81 113.342 203.887C114.526 203.922 115.745 203.953 116.857 203.579C117.968 203.205 118.959 202.323 119.024 201.246C119.093 200.115 118.119 199.104 116.976 198.657Z" fill="#2F2E41"/>
<path d="M175.67 131.904C160.354 131.904 143.71 129.126 127.178 123.783C106.734 117.175 87.9897 107.203 72.9705 94.9416L73.4152 94.1296C88.3621 106.331 107.024 116.258 127.383 122.838C145.781 128.785 164.318 131.54 180.981 130.813L181.01 131.789C179.25 131.866 177.47 131.905 175.67 131.904Z" fill="#F0F0F0"/>
<path d="M38.4583 81.0183C26.1864 66.2701 31.0531 49.4376 23.8635 37.6948C-3.69163 -7.31123 30.2387 -3.16475 68.6002 5.58745L68.6917 6.55838C44.276 9.98871 28.2188 21.4287 24.6373 37.9448C21.8538 50.7805 26.9616 65.8305 39.0199 80.3223L38.4583 81.0183Z" fill="#F0F0F0"/>
<path d="M156.861 133.37C141.545 133.37 123.943 117.897 108.369 125.248C61.2174 147.508 67.7082 110.26 54.1617 96.4074L54.6065 95.5953C69.5534 107.797 88.2151 117.724 108.574 124.304C126.973 130.25 145.509 133.005 162.172 132.278L162.201 133.255C160.441 133.332 158.661 133.37 156.861 133.37Z" fill="#F0F0F0"/>
<path d="M191.998 127.225L191.741 126.3C205.439 120.646 204.263 103.805 216.518 99.9598C309.876 70.6651 217.721 67.3615 196.993 51.866C178.456 38.009 158.255 21.8984 132.581 13.601L132.786 12.6564C158.572 20.9903 181.558 34.6502 197.51 51.12C213.542 67.6723 220.567 85.1061 217.292 100.21C214.709 112.12 205.962 121.462 191.998 127.225Z" fill="#F0F0F0"/>
<path d="M66.2173 133.778C49.7309 109.238 27.8271 87.3184 0.917969 74.2512L1.58465 73.7107C13.5153 95.6499 36.5841 116.665 66.5417 132.885L66.2173 133.778Z" fill="#F0F0F0"/>
<path d="M172.029 162.008C168.925 162.008 165.768 161.923 162.558 161.754L162.592 160.778C186.27 173.042 207.392 170.125 223.723 150.654L224.023 151.561C210.033 158.442 192.202 162.008 172.029 162.008Z" fill="#F0F0F0"/>
<path d="M176.882 152.666C178.65 152.666 180.083 150.916 180.083 148.757C180.083 146.599 178.65 144.849 176.882 144.849C175.114 144.849 173.681 146.599 173.681 148.757C173.681 150.916 175.114 152.666 176.882 152.666Z" fill="#FD6584"/>
<path d="M68.7276 81.1655C68.9929 79.574 67.3078 78.0212 64.9637 77.6972C62.6196 77.3733 60.5042 78.4008 60.2388 79.9922C59.9734 81.5837 61.6586 83.1365 64.0027 83.4605C66.3468 83.7845 68.4622 82.757 68.7276 81.1655Z" fill="#E6E6E6"/>
<path d="M53.9893 38.7583C55.7574 38.7583 57.1908 37.0085 57.1908 34.8499C57.1908 32.6914 55.7574 30.9416 53.9893 30.9416C52.2212 30.9416 50.7878 32.6914 50.7878 34.8499C50.7878 37.0085 52.2212 38.7583 53.9893 38.7583Z" fill="#E6E6E6"/>
<path d="M61.2643 61.1425C57.0891 55.8448 49.2087 53.1072 43.6631 55.0278C38.1174 56.9485 37.0064 62.8 41.1816 68.0977C45.3569 73.3953 57.6472 81.7284 63.1929 79.8078C68.7386 77.8872 65.4396 66.4401 61.2643 61.1425ZM61.29 77.4368C60.6073 78.3479 58.9325 78.3902 57.5492 77.5312C56.1659 76.6721 55.5979 75.2371 56.2805 74.326C56.9631 73.4148 58.638 73.3726 60.0213 74.2316C61.4046 75.0906 61.9726 76.5256 61.29 77.4368V77.4368Z" fill="#3F3D56"/>
<path d="M56.551 66.3244C56.031 66.7071 55.511 67.0897 54.9911 67.4723C54.3529 68.0081 53.5973 68.4147 52.7741 68.6654C51.6438 68.9032 50.4622 68.8391 49.3709 68.4809C47.7799 68.013 46.3856 67.111 45.3769 65.8971L46.5009 66.1252C45.9046 65.4968 45.4197 64.7875 45.0638 64.0228C44.8003 63.3132 44.9474 62.593 45.6588 62.3986C46.4733 62.1761 47.7844 62.6763 48.4682 62.3167C49.6506 61.695 47.7067 59.3796 48.7843 58.6653C49.4121 58.2492 50.6683 58.6609 51.7155 59.0692C53.018 59.521 54.2524 60.1211 55.3894 60.8552C57.2495 62.163 58.2793 64.2243 57.5198 65.4174C57.26 65.7708 56.9317 66.0781 56.551 66.3244V66.3244Z" fill="#6C63FF"/>
<path d="M56.1677 70.2969C55.2584 70.4103 54.2064 69.7739 53.3289 69.1868L53.1055 68.9206C52.9228 68.4111 52.8459 67.875 52.8789 67.3398C52.8996 67.0919 53.0123 66.8577 53.1984 66.6757C53.3845 66.4936 53.633 66.3746 53.9032 66.338C54.4365 66.274 55.1484 66.4834 55.5007 66.2025C56.1819 65.6593 54.6022 64.162 55.3245 63.6537C55.7298 63.3684 56.5911 63.7341 56.9625 64.2245C57.2658 64.6817 57.4058 65.2133 57.3632 65.7459C57.3753 66.5282 57.3873 67.3104 57.3994 68.0926C57.4378 68.5545 57.3864 69.0189 57.2477 69.4645C57.1714 69.6814 57.0298 69.8745 56.8388 70.0217C56.6479 70.1689 56.4154 70.2643 56.1677 70.2969V70.2969Z" fill="#2F2E41"/>
<path d="M56.3958 72.9035C55.1354 72.5646 53.2133 71.3821 51.5762 70.3379L51.0888 69.9518C50.5784 69.4248 50.1458 68.8393 49.802 68.2102C49.6131 67.7392 49.8563 67.4641 50.6932 67.6916C51.434 67.893 52.6009 68.4653 52.9459 68.3525C53.613 68.1344 50.3993 65.8008 51.1476 65.6392C51.5674 65.5485 53.0473 66.3567 53.8865 67.0479C54.5044 67.5468 55.0149 68.1463 55.3917 68.8155C55.8822 69.6271 56.3726 70.4388 56.863 71.2504C57.1592 71.6557 57.3657 72.1099 57.4707 72.5872C57.4808 72.9327 57.1606 73.1092 56.3958 72.9035Z" fill="#FF6584"/>
<path d="M234.806 9.57045C235.301 3.87149 239.443 10.5962 245.703 11.0464C247.192 11.1529 248.643 11.5254 249.974 12.1427C251.305 12.7599 252.489 13.6098 253.459 14.6438C254.429 15.6778 255.165 16.8756 255.626 18.1688C256.088 19.462 256.265 20.8253 256.147 22.1807C256.029 23.5362 255.62 24.8573 254.941 26.0685C254.262 27.2797 253.328 28.3574 252.192 29.2399C251.056 30.1224 249.74 30.7925 248.32 31.2119C246.899 31.6313 245.401 31.7917 243.913 31.6841C237.653 31.2339 234.312 15.2694 234.806 9.57045Z" fill="#6C63FF"/>
<path d="M273.778 64.2895C273.895 62.9345 274.305 61.6137 274.983 60.4027C275.662 59.1918 276.595 58.1143 277.731 57.2318C278.866 56.3493 280.182 55.679 281.602 55.2594C283.022 54.8397 284.519 54.6788 286.008 54.7858C292.267 55.236 296.455 43.9188 295.96 49.6178C295.466 55.3167 290.477 75.8738 284.217 75.4236C282.728 75.3165 281.278 74.9436 279.948 74.3262C278.617 73.7087 277.434 72.8587 276.465 71.8248C275.495 70.791 274.759 69.5934 274.298 68.3005C273.837 67.0076 273.66 65.6446 273.778 64.2895V64.2895Z" fill="#6C63FF"/>
<path d="M288.047 76.7632C286.336 77.5142 284.359 77.0714 282.881 76.0796C281.201 74.9514 280.372 73.1569 280.098 71.3161C279.835 69.3402 280.016 67.3362 280.631 65.4261C281.215 63.5836 282.467 61.6714 284.704 61.2914C286.194 61.0381 287.785 61.6171 288.199 63.0264C288.356 63.5917 288.35 64.1843 288.182 64.747C288.015 65.3097 287.691 65.8236 287.241 66.2392C285.903 67.4094 283.756 67.3203 282.202 66.5766C280.374 65.7018 279.366 63.9516 279.033 62.152C278.637 60.0125 279.19 57.8627 279.977 55.85C280.831 53.6624 281.896 51.5403 282.873 49.3969C284.78 45.2169 286.571 40.9469 287.331 36.4519C288.491 29.5852 286.684 21.4359 280.072 17.2324C276.502 14.9632 272.025 14.3204 267.767 14.8088C263.275 15.3239 259.148 17.118 255.493 19.4937C253.592 20.7516 251.787 22.1252 250.089 23.605C249.575 24.0867 248.915 24.4182 248.193 24.5575C247.471 24.6968 246.719 24.6375 246.035 24.3872C242.52 23.0849 243.64 17.8783 247.263 17.4904C248.909 17.3141 250.604 18.1502 251.721 19.1949C252.939 20.3806 253.734 21.8744 254.001 23.4796C254.62 26.858 253.245 30.4293 250.855 33.0118C248.155 35.9293 244.052 37.5718 240.057 38.4369C235.51 39.4219 230.832 39.4721 226.184 39.5657C221.427 39.6615 216.613 39.8261 212.022 41.0686C208.326 42.079 204.84 43.6388 201.703 45.6849C195.384 49.7714 190.656 55.5807 188.2 62.2739C187.623 63.8929 187.196 65.5531 186.923 67.237C186.816 67.8963 187.95 67.975 188.057 67.3185C189.252 59.9782 193.617 53.228 199.753 48.3958C202.815 45.9741 206.319 44.0602 210.107 42.7412C214.669 41.1653 219.515 40.7657 224.357 40.6371C229.303 40.5057 234.293 40.5773 239.164 39.6759C243.471 38.879 247.832 37.316 250.97 34.4213C253.736 31.869 255.448 28.2175 255.264 24.6087C255.094 21.2509 253.062 17.6604 249.299 16.6626C247.533 16.1944 245.638 16.4923 244.326 17.7195C243.597 18.4192 243.095 19.2891 242.876 20.2327C242.657 21.1763 242.729 22.1567 243.085 23.0651C243.554 24.0521 244.409 24.845 245.485 25.2894C246.561 25.7339 247.78 25.798 248.904 25.4695C249.73 25.1933 250.476 24.7494 251.085 24.1715C254.639 21.1423 258.615 18.3624 263.242 16.854C267.558 15.447 272.522 15.1584 276.816 16.7811C284.946 19.853 287.389 28.7681 286.252 36.0301C285.509 40.7827 283.532 45.2827 281.511 49.685C280.478 51.933 279.331 54.1666 278.541 56.498C277.833 58.5855 277.478 60.8254 278.058 62.9761C278.565 64.8531 279.764 66.5783 281.681 67.4876C283.423 68.3135 285.634 68.456 287.34 67.4738C289.807 66.0537 290.363 62.1325 287.591 60.7035C285.752 59.7554 283.398 60.2212 281.873 61.4664C280.163 62.8625 279.465 64.9531 279.112 66.9538C278.446 70.7343 278.97 75.3897 283.071 77.4123C284.761 78.2455 286.776 78.4705 288.542 77.6953C288.673 77.6328 288.771 77.5265 288.817 77.399C288.864 77.2714 288.854 77.1325 288.789 77.0116C288.725 76.8907 288.612 76.7972 288.473 76.7508C288.335 76.7045 288.182 76.7089 288.047 76.7632V76.7632Z" fill="#3F3D56"/>
<path d="M186.692 64.6025C187.216 58.559 178.133 42.4001 182.041 38.026C182.525 37.4794 183.034 36.9506 183.566 36.4398C185.289 34.7673 187.227 33.2902 189.338 32.0405C189.696 31.824 190.056 31.6179 190.419 31.4191C191.709 30.7182 193.052 30.1012 194.438 29.5726C194.689 29.48 194.944 29.3876 195.199 29.2952C202.187 26.8336 209.907 26.7089 216.987 28.9433C224.066 31.1777 230.045 35.6262 233.859 41.4973C237.674 47.3684 239.077 54.2811 237.818 61.0055C236.56 67.7299 232.722 73.8297 226.987 78.2195C226.685 78.4539 226.376 78.6809 226.061 78.9039C222.926 81.1322 219.356 82.8002 215.54 83.82C215.537 83.8197 215.536 83.8232 215.533 83.8229C209.81 85.3439 203.734 85.3686 197.997 83.8943L197.989 83.8937C197.863 83.8604 197.736 83.8271 197.61 83.7903C183.579 80.0158 185.493 78.4125 186.692 64.6025Z" fill="#6C63FF"/>
<path d="M194.423 29.7031C194.422 29.6592 194.427 29.6154 194.438 29.5726C194.689 29.48 194.944 29.3876 195.199 29.2952C195.306 29.3342 195.398 29.4019 195.461 29.4893C195.525 29.5767 195.558 29.6797 195.556 29.7846C195.558 30.3077 195.624 30.829 195.752 31.3389C196.851 35.765 201.827 38.345 206.271 39.4502C211.707 40.8068 217.549 40.8255 222.621 43.2773C224.705 44.2299 226.503 45.6302 227.859 47.3573C229.27 49.2538 229.863 51.5583 229.521 53.828C228.746 59.1681 224.23 63.0658 222.37 68.0233C221.604 70.0656 221.415 72.2395 222.287 74.2819C223.026 76.0171 224.486 77.6 226.584 77.9585C226.668 77.9704 226.749 78.0001 226.819 78.0454C226.889 78.0907 226.946 78.1503 226.987 78.2194C226.685 78.4538 226.376 78.6808 226.06 78.9039C225.682 78.8242 225.313 78.7084 224.961 78.5583C222.954 77.6871 221.656 75.9497 221.006 74.0583C220.257 71.8689 220.543 69.5912 221.381 67.4607C223.337 62.4928 228.17 58.4067 228.471 52.9218C228.731 48.1677 224.439 44.8824 219.961 43.3005C214.421 41.3446 208.21 41.6351 202.751 39.4393C198.457 37.7114 194.443 34.2489 194.423 29.7031Z" fill="#3F3D56"/>
<path d="M189.338 32.0406C189.695 31.824 190.055 31.618 190.419 31.4191C190.461 31.4672 190.491 31.523 190.508 31.5827C190.524 31.6424 190.526 31.7046 190.514 31.7652C189.939 36.201 191.247 40.6693 194.171 44.2562C195.435 45.83 196.982 47.198 198.747 48.3025C200.594 49.4494 202.67 50.1422 204.72 50.9195C206.737 51.6841 208.777 52.5819 210.238 54.1025C211.727 55.6529 212.352 57.6533 212.419 59.6794C212.577 64.4809 209.579 68.6678 208.96 73.3408C208.684 75.4253 209.014 77.4945 210.293 79.2789C211.398 80.819 213.13 81.9404 215.208 81.8683C215.895 81.8415 215.85 82.7521 215.245 82.8851C215.204 82.8942 215.161 82.8992 215.118 82.9002C212.701 82.9825 210.632 81.6292 209.354 79.8483C207.864 77.7787 207.496 75.3606 207.873 72.9408C208.607 68.2587 211.719 63.9313 211.25 59.0866C211.186 58.07 210.887 57.077 210.375 56.172C209.862 55.267 209.146 54.4702 208.273 53.8332C206.475 52.5582 204.279 51.8846 202.196 51.0979C200.114 50.3514 198.175 49.3077 196.454 48.0061C194.773 46.6888 193.334 45.1352 192.192 43.4043C189.909 39.9995 188.907 36.0102 189.338 32.0406V32.0406Z" fill="#3F3D56"/>
<path d="M182.041 38.026C182.525 37.4794 183.034 36.9506 183.566 36.4398C182.829 39.0757 182.703 41.8226 183.197 44.5052C183.791 47.8805 185.312 51.0647 187.617 53.7631C188.773 55.1068 190.134 56.2923 191.661 57.2832C193.407 58.4125 195.336 59.3992 196.492 61.1021C199 64.7989 196.707 69.2235 195.475 72.9143C194.828 74.8407 194.39 76.91 195.106 78.872C195.662 80.3934 196.895 81.8699 198.717 82.1705C199.432 82.2878 199.346 83.3234 198.627 83.2024C198.492 83.1789 198.358 83.1519 198.223 83.1215C196.246 82.647 194.819 81.1737 194.126 79.4349C193.228 77.1656 193.648 74.8146 194.403 72.5603C195.645 68.8528 198.198 64.0075 194.676 60.6531C193.19 59.2379 191.179 58.3699 189.556 57.0937C188.101 55.9554 186.824 54.6421 185.758 53.1899C182.495 48.7303 181.17 43.3255 182.041 38.026V38.026Z" fill="#3F3D56"/>
<path d="M203.763 111.91V111.245H191.524V95.7399H190.796V111.245H176.769V99.2711C176.524 99.4466 176.282 99.6272 176.043 99.813V111.245H166.778C166.675 111.465 166.576 111.686 166.483 111.91H176.043V124.939H164.172C164.184 125.162 164.201 125.382 164.221 125.603H176.043V135.998H167.186C167.295 136.221 167.409 136.441 167.529 136.659H176.043V145.396H176.769V136.659H190.796V145.396H191.524V136.659H203.763V135.998H191.524C191.523 134.632 191.819 133.281 192.392 132.02C192.966 130.758 193.807 129.612 194.867 128.647C195.927 127.682 197.186 126.916 198.571 126.394C199.957 125.872 201.441 125.603 202.941 125.603H203.763V124.939H191.524V111.91H203.763ZM190.796 135.998H176.769V125.603H190.796V135.998ZM190.796 124.939H176.769V124.678C176.769 123.001 177.132 121.341 177.837 119.791C178.542 118.242 179.575 116.835 180.878 115.649C182.18 114.463 183.726 113.523 185.428 112.881C187.13 112.24 188.954 111.91 190.796 111.91V124.939Z" fill="#3F3D56"/>
<path d="M169.14 233.894L64.6334 234C64.5137 234 64.3989 233.957 64.3143 233.88C64.2297 233.803 64.1821 233.698 64.1821 233.589C64.1821 233.48 64.2297 233.376 64.3143 233.299C64.3989 233.222 64.5137 233.178 64.6334 233.178L169.14 233.072C169.199 233.072 169.258 233.083 169.313 233.103C169.368 233.124 169.418 233.154 169.46 233.192C169.502 233.23 169.535 233.276 169.558 233.326C169.581 233.376 169.593 233.429 169.593 233.483C169.593 233.537 169.581 233.591 169.558 233.641C169.535 233.691 169.502 233.736 169.46 233.774C169.418 233.812 169.368 233.842 169.313 233.863C169.258 233.884 169.199 233.894 169.14 233.894Z" fill="#CACACA"/>
</g>
<defs>
<clipPath id="clip0_621:28">
<rect width="295.082" height="234" fill="white" transform="translate(0.917969)"/>
</clipPath>
</defs>
</svg>
