<svg width="100" height="141" viewBox="0 0 100 141" fill="none" xmlns="http://www.w3.org/2000/svg">
<path d="M12.498 110.008C14.4434 110.008 16.0605 110.137 17.3496 110.395C18.6504 110.652 19.6875 111.033 20.4609 111.537C21.2344 112.029 21.7793 112.639 22.0957 113.365C22.4238 114.092 22.5879 114.924 22.5879 115.861C22.5879 116.447 22.4941 117.016 22.3066 117.566C22.1191 118.105 21.8438 118.598 21.4805 119.043C21.1172 119.488 20.666 119.875 20.127 120.203C19.5996 120.52 18.9902 120.748 18.2988 120.889C19.9395 121.229 21.2168 121.891 22.1309 122.875C23.0449 123.859 23.502 125.113 23.502 126.637C23.502 127.562 23.3379 128.418 23.0098 129.203C22.6934 129.977 22.1543 130.645 21.3926 131.207C20.6426 131.77 19.6406 132.209 18.3867 132.525C17.1328 132.842 15.5801 133 13.7285 133H1.2832V129.871H2.19727C2.5957 129.871 2.90625 129.836 3.12891 129.766C3.35156 129.684 3.51562 129.572 3.62109 129.432C3.73828 129.291 3.80859 129.115 3.83203 128.904C3.85547 128.693 3.86719 128.453 3.86719 128.184V115.229C3.86719 115.006 3.85547 114.777 3.83203 114.543C3.82031 114.297 3.76172 114.074 3.65625 113.875C3.5625 113.664 3.41016 113.494 3.19922 113.365C2.98828 113.225 2.68945 113.154 2.30273 113.154C2.26758 113.154 2.20312 113.154 2.10938 113.154C2.01562 113.143 1.91602 113.137 1.81055 113.137C1.7168 113.137 1.61719 113.137 1.51172 113.137C1.41797 113.137 1.3418 113.137 1.2832 113.137V110.008H12.498ZM9.59766 119.904H12.4102C15.3281 119.904 16.7871 118.773 16.7871 116.512C16.7871 115.984 16.6992 115.521 16.5234 115.123C16.3594 114.713 16.0957 114.367 15.7324 114.086C15.3691 113.805 14.9004 113.594 14.3262 113.453C13.752 113.301 13.0547 113.225 12.2344 113.225H9.59766V119.904ZM9.59766 129.801H12.498C14.127 129.801 15.3574 129.514 16.1895 128.939C17.0215 128.365 17.4375 127.48 17.4375 126.285C17.4375 125.629 17.332 125.066 17.1211 124.598C16.9102 124.129 16.5645 123.742 16.084 123.438C15.6152 123.133 15.0059 122.91 14.2559 122.77C13.5059 122.617 12.5977 122.541 11.5312 122.541H9.59766V129.801ZM30.5332 109.533C30.9668 109.533 31.3652 109.586 31.7285 109.691C32.1035 109.785 32.4258 109.926 32.6953 110.113C32.9766 110.289 33.1934 110.512 33.3457 110.781C33.498 111.051 33.5742 111.35 33.5742 111.678C33.5742 112.334 33.2988 112.861 32.748 113.26C32.209 113.658 31.4707 113.857 30.5332 113.857C29.6191 113.857 28.8867 113.676 28.3359 113.312C27.7852 112.949 27.5098 112.404 27.5098 111.678C27.5098 111.033 27.7852 110.518 28.3359 110.131C28.8867 109.732 29.6191 109.533 30.5332 109.533ZM33.5391 128.535C33.5391 128.898 33.5625 129.186 33.6094 129.396C33.668 129.607 33.7676 129.771 33.9082 129.889C34.0605 129.994 34.2715 130.064 34.541 130.1C34.8105 130.135 35.1621 130.152 35.5957 130.152V133C35.1973 133 34.752 133 34.2598 133C33.7793 132.988 33.2871 132.982 32.7832 132.982C32.291 132.982 31.8105 132.982 31.3418 132.982C30.8848 132.971 30.4805 132.965 30.1289 132.965C29.707 132.965 29.3145 132.971 28.9512 132.982C28.5879 132.982 28.2422 132.982 27.9141 132.982C27.5859 132.982 27.2637 132.988 26.9473 133C26.6309 133 26.3086 133 25.9805 133V130.152C26.4727 130.152 26.8594 130.141 27.1406 130.117C27.4336 130.082 27.6562 130.012 27.8086 129.906C27.9609 129.789 28.0605 129.625 28.1074 129.414C28.1543 129.203 28.1777 128.91 28.1777 128.535V120.836C28.1777 120.59 28.1367 120.402 28.0547 120.273C27.9727 120.145 27.8438 120.051 27.668 119.992C27.4922 119.922 27.2695 119.881 27 119.869C26.7422 119.857 26.4316 119.852 26.0684 119.852C26.0684 119.371 26.0684 118.902 26.0684 118.445C26.0801 117.988 26.0859 117.52 26.0859 117.039C26.5781 117.039 27.0469 117.045 27.4922 117.057C27.9375 117.057 28.3711 117.057 28.793 117.057C29.5547 117.057 30.3281 117.051 31.1133 117.039C31.9102 117.027 32.7188 117.004 33.5391 116.969V128.535ZM47.6016 119.711C46.957 119.711 46.3711 119.84 45.8438 120.098C45.3281 120.344 44.8887 120.701 44.5254 121.17C44.1621 121.627 43.8809 122.184 43.6816 122.84C43.4941 123.496 43.4004 124.229 43.4004 125.037C43.4004 125.822 43.4941 126.531 43.6816 127.164C43.8809 127.797 44.1621 128.336 44.5254 128.781C44.9004 129.227 45.3516 129.572 45.8789 129.818C46.4062 130.053 46.998 130.17 47.6543 130.17C48.3105 130.17 48.8965 130.053 49.4121 129.818C49.9395 129.572 50.3848 129.221 50.748 128.764C51.1113 128.307 51.3867 127.756 51.5742 127.111C51.7734 126.455 51.873 125.711 51.873 124.879C51.873 124.105 51.7734 123.402 51.5742 122.77C51.3867 122.137 51.1113 121.592 50.748 121.135C50.3848 120.678 49.9336 120.326 49.3945 120.08C48.8672 119.834 48.2695 119.711 47.6016 119.711ZM52.0488 116.986C52.7637 117.01 53.4785 117.033 54.1934 117.057C54.9082 117.068 55.6406 117.074 56.3906 117.074C57.0117 117.074 57.5449 117.074 57.9902 117.074C58.4473 117.062 58.9043 117.051 59.3613 117.039V119.869C59.1738 119.869 59.0273 119.869 58.9219 119.869C58.8164 119.857 58.7051 119.857 58.5879 119.869C58.2715 119.869 58.0137 119.898 57.8145 119.957C57.6152 120.016 57.457 120.115 57.3398 120.256C57.2344 120.396 57.1582 120.59 57.1113 120.836C57.0762 121.07 57.0586 121.369 57.0586 121.732V131.787C57.0586 133.463 56.8477 134.863 56.4258 135.988C56.0039 137.113 55.377 138.01 54.5449 138.678C53.7129 139.357 52.6816 139.838 51.4512 140.119C50.2207 140.4 48.7969 140.541 47.1797 140.541C46.4883 140.541 45.791 140.506 45.0879 140.436C44.3848 140.377 43.6934 140.283 43.0137 140.154C42.3457 140.037 41.6895 139.885 41.0449 139.697C40.4121 139.51 39.8203 139.299 39.2695 139.064L39.9551 134.74C40.1309 134.799 40.3945 134.84 40.7461 134.863C41.1094 134.887 41.4727 134.91 41.8359 134.934C42.2578 134.957 42.709 134.975 43.1895 134.986C43.2598 135.514 43.3945 135.953 43.5938 136.305C43.8047 136.656 44.0742 136.932 44.4023 137.131C44.7305 137.342 45.1172 137.488 45.5625 137.57C46.0195 137.652 46.541 137.693 47.127 137.693C47.7949 137.693 48.4102 137.6 48.9727 137.412C49.5352 137.236 50.0156 136.938 50.4141 136.516C50.8242 136.105 51.1406 135.572 51.3633 134.916C51.5977 134.26 51.7207 133.457 51.7324 132.508V130.75C51.0059 131.453 50.1562 131.975 49.1836 132.314C48.2227 132.643 47.1621 132.807 46.002 132.807C44.7715 132.807 43.6582 132.625 42.6621 132.262C41.666 131.898 40.8164 131.383 40.1133 130.715C39.4102 130.035 38.8652 129.209 38.4785 128.236C38.1035 127.264 37.916 126.168 37.916 124.949C37.916 123.684 38.1094 122.541 38.4961 121.521C38.8945 120.502 39.4512 119.635 40.166 118.92C40.8926 118.193 41.7539 117.637 42.75 117.25C43.7578 116.852 44.8711 116.652 46.0898 116.652C47.4727 116.652 48.6504 116.898 49.623 117.391C50.6074 117.871 51.416 118.516 52.0488 119.324V116.986ZM73.7227 109.568C75.6562 109.568 77.3672 109.873 78.8555 110.482C80.3555 111.092 81.6152 111.936 82.6348 113.014C83.666 114.08 84.4453 115.34 84.9727 116.793C85.5117 118.246 85.7812 119.811 85.7812 121.486C85.7812 123.162 85.5117 124.727 84.9727 126.18C84.4453 127.633 83.6719 128.898 82.6523 129.977C81.6328 131.055 80.3789 131.904 78.8906 132.525C77.4023 133.146 75.6973 133.457 73.7754 133.457C71.8301 133.457 70.1016 133.152 68.5898 132.543C67.0781 131.934 65.8066 131.096 64.7754 130.029C63.7441 128.951 62.959 127.686 62.4199 126.232C61.8809 124.768 61.6113 123.186 61.6113 121.486C61.6113 119.811 61.875 118.252 62.4023 116.811C62.9297 115.357 63.7031 114.098 64.7227 113.031C65.7539 111.953 67.0195 111.109 68.5195 110.5C70.0312 109.879 71.7656 109.568 73.7227 109.568ZM73.7051 112.979C72.6973 112.979 71.8301 113.172 71.1035 113.559C70.3887 113.945 69.7969 114.508 69.3281 115.246C68.8711 115.973 68.5312 116.863 68.3086 117.918C68.0977 118.961 67.9922 120.139 67.9922 121.451C67.9922 122.822 68.1094 124.041 68.3438 125.107C68.5781 126.174 68.9297 127.076 69.3984 127.814C69.8672 128.541 70.459 129.098 71.1738 129.484C71.8887 129.859 72.7324 130.047 73.7051 130.047C74.6895 130.047 75.5391 129.854 76.2539 129.467C76.9805 129.068 77.5723 128.5 78.0293 127.762C78.498 127.023 78.8438 126.127 79.0664 125.072C79.3008 124.006 79.418 122.805 79.418 121.469C79.418 118.727 78.9492 116.629 78.0117 115.176C77.0742 113.711 75.6387 112.979 73.7051 112.979ZM93.5684 128.939C94.0254 128.939 94.4355 128.992 94.7988 129.098C95.1738 129.203 95.4902 129.35 95.748 129.537C96.0176 129.713 96.2227 129.936 96.3633 130.205C96.5156 130.463 96.5918 130.75 96.5918 131.066C96.5918 131.688 96.3281 132.203 95.8008 132.613C95.2852 133.012 94.541 133.211 93.5684 133.211C92.5957 133.211 91.8457 133.023 91.3184 132.648C90.791 132.273 90.5273 131.746 90.5273 131.066C90.5273 130.457 90.7969 129.953 91.3359 129.555C91.875 129.145 92.6191 128.939 93.5684 128.939ZM96.5742 110.025C96.5859 110.119 96.5918 110.266 96.5918 110.465C96.6035 110.664 96.6094 110.875 96.6094 111.098C96.6211 111.309 96.627 111.514 96.627 111.713C96.627 111.912 96.627 112.059 96.627 112.152C96.627 112.574 96.5977 113.137 96.5391 113.84C96.4805 114.531 96.4043 115.305 96.3105 116.16C96.2168 117.004 96.1113 117.883 95.9941 118.797C95.877 119.711 95.7598 120.59 95.6426 121.434C95.5254 122.277 95.4082 123.051 95.291 123.754C95.1738 124.445 95.0742 124.996 94.9922 125.406H92.3906C92.3086 125.008 92.209 124.463 92.0918 123.771C91.9863 123.068 91.875 122.295 91.7578 121.451C91.6406 120.607 91.5234 119.723 91.4062 118.797C91.2891 117.871 91.1836 116.98 91.0898 116.125C91.0078 115.27 90.9375 114.49 90.8789 113.787C90.8203 113.072 90.791 112.504 90.791 112.082C90.791 111.988 90.791 111.848 90.791 111.66C90.791 111.473 90.791 111.273 90.791 111.062C90.8027 110.852 90.8086 110.652 90.8086 110.465C90.8203 110.266 90.832 110.119 90.8438 110.025H96.5742Z" fill="white"/>
<circle cx="50" cy="50" r="49.5" fill="#BA60A5" stroke="#343A40"/>
<path d="M31 45.5H57.5M1 57.5H6.5M23 57.5H57.5M79.5 57.5H99M41 68.5H69H79.5M13.5 83.5H41M51.5 83.5H86.5M25.5 93H51.5M37 22.5H57.5M17.6968 12.5H41M57.5 12.5H72.5" stroke="#343A40"/>
<circle cx="82" cy="10" r="9.5" fill="#C299E7" stroke="#343A40"/>
<circle cx="72" cy="95" r="4.5" fill="#C299E7" stroke="#343A40"/>
<path d="M3.5 34H38.5M50.5 34H96.5M0.5 45.5H15" stroke="#343A40"/>
</svg>
