<svg width="106" height="106" viewBox="0 0 106 106" fill="none" xmlns="http://www.w3.org/2000/svg">
<path fill-rule="evenodd" clip-rule="evenodd" d="M59.7778 55.7851C68.2684 45.1841 67.6001 29.6663 57.773 19.8392C47.2288 9.29505 30.1334 9.29505 19.5892 19.8392C9.04504 30.3834 9.04504 47.4788 19.5892 58.023C29.1723 67.6061 44.1669 68.4795 54.7365 60.6433L83.5824 89.4892L88.1786 84.893L88.5321 84.5395L59.7778 55.7851ZM53.9546 54.2046C62.3899 45.7693 62.3899 32.0929 53.9546 23.6576C45.5193 15.2223 31.8429 15.2223 23.4076 23.6576C14.9722 32.0929 14.9722 45.7693 23.4076 54.2046C31.8429 62.6399 45.5193 62.6399 53.9546 54.2046Z" fill="#343A40"/>
</svg>
